<svg xmlns="http://www.w3.org/2000/svg" xmlns:xlink="http://www.w3.org/1999/xlink" viewBox="0 0 266.36 251.74"><defs><style>.cls-1{isolation:isolate;}.cls-10,.cls-11,.cls-12,.cls-13,.cls-14,.cls-15,.cls-16,.cls-17,.cls-18,.cls-19,.cls-2,.cls-20,.cls-21,.cls-22,.cls-23,.cls-24,.cls-25,.cls-26,.cls-27,.cls-28,.cls-29,.cls-3,.cls-30,.cls-31,.cls-32,.cls-33,.cls-34,.cls-35,.cls-4,.cls-5,.cls-6,.cls-7,.cls-8,.cls-9{fill-rule:evenodd;}.cls-2{fill:url(#radial-gradient);}.cls-12,.cls-16,.cls-17,.cls-19,.cls-23,.cls-25,.cls-27,.cls-29,.cls-3,.cls-31,.cls-33,.cls-35,.cls-7{mix-blend-mode:multiply;}.cls-3{fill:url(#New_Gradient_Swatch_76);}.cls-4{fill:url(#radial-gradient-2);}.cls-20,.cls-21,.cls-5,.cls-6,.cls-9{mix-blend-mode:screen;}.cls-5{fill:url(#radial-gradient-3);}.cls-6{fill:url(#radial-gradient-4);}.cls-7{fill:url(#radial-gradient-5);}.cls-8{fill:url(#New_Gradient_Swatch_22);}.cls-9{fill:url(#radial-gradient-6);}.cls-10{fill:url(#radial-gradient-7);}.cls-11{fill:url(#radial-gradient-8);}.cls-12{opacity:0.5;fill:url(#radial-gradient-9);}.cls-13{fill:url(#radial-gradient-10);}.cls-14{fill:url(#New_Gradient_Swatch_3);}.cls-15{fill:url(#radial-gradient-11);}.cls-16{fill:url(#radial-gradient-12);}.cls-17{fill:url(#radial-gradient-13);}.cls-18{fill:url(#radial-gradient-14);}.cls-19{fill:url(#radial-gradient-15);}.cls-20{fill:url(#radial-gradient-16);}.cls-21{fill:url(#radial-gradient-17);}.cls-22{fill:url(#radial-gradient-18);}.cls-23{fill:url(#New_Gradient_Swatch_76-2);}.cls-24{fill:url(#radial-gradient-19);}.cls-25{fill:url(#New_Gradient_Swatch_76-3);}.cls-26{fill:url(#radial-gradient-20);}.cls-27{fill:url(#New_Gradient_Swatch_76-4);}.cls-28{fill:url(#radial-gradient-21);}.cls-29{fill:url(#New_Gradient_Swatch_76-5);}.cls-30{fill:url(#radial-gradient-22);}.cls-31{fill:url(#New_Gradient_Swatch_76-6);}.cls-32{fill:url(#radial-gradient-23);}.cls-33{fill:url(#New_Gradient_Swatch_76-7);}.cls-34{fill:url(#radial-gradient-24);}.cls-35{fill:url(#New_Gradient_Swatch_76-8);}</style><radialGradient id="radial-gradient" cx="64.53" cy="97.04" r="76.19" gradientTransform="matrix(1, -0.08, 0.08, 1, -6.06, 6.27)" gradientUnits="userSpaceOnUse"><stop offset="0" stop-color="#9ecfff"/><stop offset="0.17" stop-color="#bcdeff"/><stop offset="0.39" stop-color="#d9ecff"/><stop offset="0.6" stop-color="#eef7ff"/><stop offset="0.8" stop-color="#fbfdff"/><stop offset="1" stop-color="#fff"/></radialGradient><radialGradient id="New_Gradient_Swatch_76" cx="63.27" cy="116.89" r="82.02" gradientTransform="matrix(1, -0.08, 0.08, 1, -6.06, 6.27)" gradientUnits="userSpaceOnUse"><stop offset="0" stop-color="#aac2e6"/><stop offset="1" stop-color="#fff"/></radialGradient><radialGradient id="radial-gradient-2" cx="110.13" cy="94.31" r="194.9" gradientUnits="userSpaceOnUse"><stop offset="0" stop-color="#009ced"/><stop offset="0.92" stop-color="#4e3bf5"/></radialGradient><radialGradient id="radial-gradient-3" cx="150.12" cy="158.47" r="135.13" gradientUnits="userSpaceOnUse"><stop offset="0.04"/><stop offset="0.84"/><stop offset="0.85" stop-color="#0d1516"/><stop offset="0.9" stop-color="#3e6268"/><stop offset="0.93" stop-color="#659fa9"/><stop offset="0.96" stop-color="#81cbd7"/><stop offset="0.99" stop-color="#93e6f4"/><stop offset="1" stop-color="#99f0ff"/></radialGradient><radialGradient id="radial-gradient-4" cx="87.45" cy="61.94" r="197.29" gradientUnits="userSpaceOnUse"><stop offset="0" stop-color="#1fceff"/><stop offset="1"/></radialGradient><radialGradient id="radial-gradient-5" cx="111.06" cy="103.17" r="185.33" gradientUnits="userSpaceOnUse"><stop offset="0.56" stop-color="#f5f5ff"/><stop offset="0.64" stop-color="#f0eafa"/><stop offset="0.79" stop-color="#e1cced"/><stop offset="0.99" stop-color="#ca9dd9"/><stop offset="1" stop-color="#c899d7"/></radialGradient><radialGradient id="New_Gradient_Swatch_22" cx="108.87" cy="114.64" r="128.94" gradientUnits="userSpaceOnUse"><stop offset="0" stop-color="#91eb00"/><stop offset="1" stop-color="#05a100"/></radialGradient><radialGradient id="radial-gradient-6" cx="129.02" cy="88.07" r="136.72" gradientUnits="userSpaceOnUse"><stop offset="0" stop-color="#8fe561"/><stop offset="1"/></radialGradient><radialGradient id="radial-gradient-7" cx="122.38" cy="74.85" r="161.38" gradientUnits="userSpaceOnUse"><stop offset="0" stop-color="#94ffe1"/><stop offset="0.18" stop-color="#88f9dd"/><stop offset="0.51" stop-color="#67e9d1"/><stop offset="0.95" stop-color="#33cebd"/><stop offset="1" stop-color="#2dcbbb"/></radialGradient><radialGradient id="radial-gradient-8" cx="71.51" cy="130.55" r="108.66" gradientUnits="userSpaceOnUse"><stop offset="0" stop-color="#dede00"/><stop offset="0.15" stop-color="#d2d200"/><stop offset="0.42" stop-color="#b2b200"/><stop offset="0.47" stop-color="#abab00"/><stop offset="0.51" stop-color="#a5a500"/><stop offset="0.77" stop-color="#7d7d00"/><stop offset="0.91" stop-color="#6e6e00"/></radialGradient><radialGradient id="radial-gradient-9" cx="97.94" cy="153.07" r="49.01" gradientUnits="userSpaceOnUse"><stop offset="0" stop-color="#fff"/><stop offset="1" stop-color="#093"/></radialGradient><radialGradient id="radial-gradient-10" cx="186.67" cy="113.97" r="100.94" gradientUnits="userSpaceOnUse"><stop offset="0" stop-color="#f0ab54"/><stop offset="1" stop-color="#b87126"/></radialGradient><radialGradient id="New_Gradient_Swatch_3" cx="153.4" cy="149.97" r="105.59" gradientUnits="userSpaceOnUse"><stop offset="0" stop-color="#78e05b"/><stop offset="1" stop-color="#0d9c00"/></radialGradient><radialGradient id="radial-gradient-11" cx="73.53" cy="44.07" r="119.1" gradientUnits="userSpaceOnUse"><stop offset="0" stop-color="#fff"/><stop offset="0.17" stop-color="#f9fcff"/><stop offset="0.4" stop-color="#e9f4ff"/><stop offset="0.66" stop-color="#cde6ff"/><stop offset="0.94" stop-color="#a8d4ff"/><stop offset="1" stop-color="#9ecfff"/></radialGradient><radialGradient id="radial-gradient-12" cx="212.42" cy="85.97" r="61.43" gradientUnits="userSpaceOnUse"><stop offset="0" stop-color="#fff"/><stop offset="1" stop-color="#848431"/></radialGradient><radialGradient id="radial-gradient-13" cx="45.6" cy="151.01" r="104.24" xlink:href="#radial-gradient-9"/><radialGradient id="radial-gradient-14" cx="74.01" cy="198.67" r="65.91" xlink:href="#radial-gradient-10"/><radialGradient id="radial-gradient-15" cx="73.08" cy="199.71" r="63.8" xlink:href="#radial-gradient-12"/><radialGradient id="radial-gradient-16" cx="118.83" cy="78.48" r="78.93" gradientUnits="userSpaceOnUse"><stop offset="0" stop-color="#f2f6ff"/><stop offset="1"/></radialGradient><radialGradient id="radial-gradient-17" cx="71.16" cy="121.59" r="68.38" gradientUnits="userSpaceOnUse"><stop offset="0" stop-color="#c5c55c"/><stop offset="1" stop-color="#000a00"/></radialGradient><radialGradient id="radial-gradient-18" cx="117.64" cy="39.43" r="34.01" gradientTransform="matrix(0.96, -0.27, 0.27, 0.96, -15.4, 27.57)" xlink:href="#radial-gradient"/><radialGradient id="New_Gradient_Swatch_76-2" cx="121.32" cy="60.44" r="48.41" gradientTransform="matrix(0.96, -0.27, 0.27, 0.96, -15.4, 27.57)" xlink:href="#New_Gradient_Swatch_76"/><radialGradient id="radial-gradient-19" cx="142.17" cy="183.9" r="121.28" gradientTransform="translate(48.58 -21.75) rotate(21.04)" xlink:href="#radial-gradient"/><radialGradient id="New_Gradient_Swatch_76-3" cx="150.42" cy="219.81" r="105.91" gradientTransform="translate(48.58 -21.75) rotate(21.04)" xlink:href="#New_Gradient_Swatch_76"/><radialGradient id="radial-gradient-20" cx="44.96" cy="168.6" r="61.74" gradientTransform="translate(-7.91 5.85) rotate(-4.66)" xlink:href="#radial-gradient"/><radialGradient id="New_Gradient_Swatch_76-4" cx="41.47" cy="178.83" r="68.96" gradientTransform="translate(-7.91 5.85) rotate(-4.66)" xlink:href="#New_Gradient_Swatch_76"/><radialGradient id="radial-gradient-21" cx="131.64" cy="98.58" r="85.88" gradientTransform="matrix(0.99, 0.15, -0.15, 0.99, 13.63, -13.96)" xlink:href="#radial-gradient"/><radialGradient id="New_Gradient_Swatch_76-5" cx="140.73" cy="111.83" r="88.28" gradientTransform="matrix(0.99, 0.15, -0.15, 0.99, 13.63, -13.96)" xlink:href="#New_Gradient_Swatch_76"/><radialGradient id="radial-gradient-22" cx="193.36" cy="137.73" r="94.31" gradientTransform="matrix(1, 0, 0, 1, 0, 0)" xlink:href="#radial-gradient"/><radialGradient id="New_Gradient_Swatch_76-6" cx="221.49" cy="152.6" r="130.04" gradientTransform="matrix(1, 0, 0, 1, 0, 0)" xlink:href="#New_Gradient_Swatch_76"/><radialGradient id="radial-gradient-23" cx="243.96" cy="122.4" r="36.44" gradientTransform="matrix(1, 0.06, -0.06, 1, 20.47, -8.9)" xlink:href="#radial-gradient"/><radialGradient id="New_Gradient_Swatch_76-7" cx="239.01" cy="132.98" r="37.47" gradientTransform="matrix(1, 0.06, -0.06, 1, 20.47, -8.9)" xlink:href="#New_Gradient_Swatch_76"/><radialGradient id="radial-gradient-24" cx="181.16" cy="231.06" r="122.76" gradientTransform="matrix(1, 0, 0, 1, 0, 0)" xlink:href="#radial-gradient"/><radialGradient id="New_Gradient_Swatch_76-8" cx="192.98" cy="239.69" r="85.29" gradientTransform="matrix(1, 0, 0, 1, 0, 0)" xlink:href="#New_Gradient_Swatch_76"/></defs><g class="cls-1"><g id="Layer_1" data-name="Layer 1"><path class="cls-2" d="M72.35,41.7a15.67,15.67,0,0,0-5.58,4.8c.65-2.45.28-6-4.28-6.54C49.7,38.51,42.37,54.84,39.57,63.7c-5.25-2.94-13.85-1.91-19,5C12.93,79,14.78,93.54,18.85,105.16c-3.1-.28-5.3,1.39-6.53,4.25-4.53,10.45,2.71,27.43,9.47,30,11.12,4.15,62.85-78.05,63.77-91.9.54-8.15-7.6-8.59-13.21-5.76Z" transform="translate(-10.91 -15.86)"/><path class="cls-3" d="M19.86,107.35c-9.84-2.59-7.51,21-1.56,29.51a9.86,9.86,0,0,0,3.49,2.5c9.37,3.49,47.57-54.3,59.92-80.88,3.54-14.36-5.41-22.39-17.36-6.78.76-3.11-.51-7.05-2-7.83C53.51,39.22,43,58.35,37,73.89c.54-2.74,1-4.72,1.63-7-23.18-1.45-20.31,28.76-17.25,44.2l-1.56-3.71Z" transform="translate(-10.91 -15.86)"/><path class="cls-4" d="M139.89,27.22A120.09,120.09,0,1,1,19.8,147.31,120.09,120.09,0,0,1,139.89,27.22Z" transform="translate(-10.91 -15.86)"/><path class="cls-5" d="M139.89,27.22A120.09,120.09,0,1,1,19.8,147.31,120.09,120.09,0,0,1,139.89,27.22Z" transform="translate(-10.91 -15.86)"/><path class="cls-6" d="M137.4,223.46c-1.82.39-3.24-.19-4.22,1-1.35,1.66-1.25,3.9,3,3.72,2-.09.33,3.28,2,3.88,4.39,1.56,8.55.86,11.53-2.55,1-1.19,1.61-1.63,4.27-2.29,2.07-.51-2.21-2,4-3.25,6.81-1.39,1.87-2.21,6.45-6.12,1.34-1.15-3.27-4.27,2.82-6.08,4.82-1.43,4.59-1.05,5.29-5.79.38-2.51-.68-2.28-3.14-2.62-3.42-.46-3.39,4.89-7.69,6-2.61.68-7.13,2.84-6.67,6,.54,3.72-3.78,6.73-3.89.29-.08-4.91-3.1-4.77-4.21-2.27-.55,1.24-.81,3-1.31,4.1-1.11,2.43-3.05,2.76-4.21,3.94s-1.55,1.5-4,2Zm-26-185.31a9.42,9.42,0,0,0,1.4-.3,26.77,26.77,0,0,1,2.88-.8,85,85,0,0,1,10.79-1c.81,0,1.45.76,2.24.93a13.69,13.69,0,0,0,3.32.24c1.44,0,2.86-.63,4.29-.49a45.23,45.23,0,0,1,9.08,1.81c2.58.82,4.84,2.46,7.37,3.42,1.66.62,3.54.61,5.17,1.31a16,16,0,0,1,4.93,3c1.33,1.31,2,3.16,3,4.73a.66.66,0,0,0,.14.15c1.24,1.06,2.4,2.21,3.71,3.17S172.67,56,174,57a19.09,19.09,0,0,1,3.27,3.27,23.5,23.5,0,0,1,3,4.73c1.32,2.93,2.17,6,3.23,9.08,1.58,4.54,3.86,8.92,4.68,13.66a43.75,43.75,0,0,1,.2,14.44c-1.64,9.87-3.4,19.93-7.42,29.09-1.18,2.68-5.45,2.52-7.42,4.68s-2.32,5.59-4.1,8c-.83,1.13-2.76,1.15-3.51,2.34-3.11,4.92-4.9,10.57-7.81,15.61a20.9,20.9,0,0,1-4.68,6.05c-3.37,2.71-7.6,4.15-11.13,6.64-1.84,1.3-2.89,3.63-4.88,4.69-5,2.64-10.58,4-15.81,6.24-.61.26-1.07.78-1.66,1.08-2.83,1.43-5.68,2.82-8.59,4.09-2.14.94-4.21,2.31-6.54,2.54-1.74.18-3.34-1.14-5.07-1.36a15.24,15.24,0,0,0-4.1.19,17.68,17.68,0,0,0-4.69,1.07c-2.06.93-3.59,3-5.75,3.62a4,4,0,0,1-3.32-.88c-1.06-.83-1.08-2.61-2.15-3.42-.82-.61-2-.27-3-.49-2.29-.5-4.86-.39-6.83-1.66-1.47-.94-1.93-2.93-2.73-4.49-.54-1.05-.27-2.68-1.27-3.31s-2.47.27-3.71.19c-.86-.05-2.19.21-2.53-.58-.53-1.21,1-2.67.58-3.91-.29-.79-1.5-1.05-2.34-1-1.21.1-2.11,1.53-3.32,1.46s-2.21-1.06-3.12-1.85a24.49,24.49,0,0,1-3.86-4.15,3.65,3.65,0,0,1-.63-2.05c0-.79.77-1.55.53-2.29s-1.39-.71-1.7-1.37.34-1.38.09-2c-.11-.29-.62,0-.92-.05a18.15,18.15,0,0,1-4.79-1.42,2.11,2.11,0,0,1-.87-1.9c.06-.9,1.31-1.55,1.17-2.44s-1.15-1.25-1.86-1.71a16.3,16.3,0,0,0-1.85-.68c-.06,0,0-.13,0-.2a6.38,6.38,0,0,1,.39-1.7c.35-.67,1.06-1.1,1.41-1.76a5.08,5.08,0,0,0,.64-2.1c0-.38-.13-.9-.49-1-1.13-.38-2.4-.06-3.56-.34a2.82,2.82,0,0,1-1.47-.88,3.28,3.28,0,0,1-.87-2c0-2.78.85-5.51.87-8.29a11.09,11.09,0,0,0-.78-3.71c-.5-1.46-1.63-2.69-2-4.2a8.07,8.07,0,0,1,.29-3.61,29.64,29.64,0,0,1,1.57-3.51A18.49,18.49,0,0,0,34,120.1a19.26,19.26,0,0,0,.1-3.8c0-2-.44-4-.19-6a17,17,0,0,1,1.66-5.66c.85-1.66,2.38-2.9,3.51-4.39a13.56,13.56,0,0,0,1.37-2.05,30.27,30.27,0,0,0,1.36-3.41c.55-1.58.82-3.25,1.47-4.79a28.92,28.92,0,0,1,3.31-6.54c1-1.34,2.88-1.85,4.1-3A26.12,26.12,0,0,0,53.45,77c1-1.43,1.74-3.16,3-4.39.9-.85,2.44-.79,3.32-1.66s.94-2.49,1.85-3.41c1.75-1.77,4.19-2.74,6-4.49a21.51,21.51,0,0,0,2.73-4.1c1-1.51,1.5-3.3,2.73-4.59a8.23,8.23,0,0,1,3.32-1.75c2-.7,4.16-.86,6.15-1.57a12.18,12.18,0,0,0,2.34-1.46c2-1.3,4.16-2.51,6.15-3.9,1.37-1,2.48-2.27,3.91-3.13a22.44,22.44,0,0,1,4.53-1.95c.74-.24,1.56-.06,2.3-.29s1.48-.87,2.29-1.12a25.08,25.08,0,0,1,4.2-.88c1-.14,2.12,0,3.18-.12ZM177.06,47a2.84,2.84,0,0,0-1.73.3c-.13,1.65-.6,1.11.31,2.66,1.64,2.77-1.87,2.89.53,6.12.65.88,3.66-.53,3.74,1.28.05,1.34,3.2-.58,4.5,3.48a8.33,8.33,0,0,1,1.22,2.47c1,4.25-2.63,1.22-1.72,4.58.31,1.17,2,.49,2.15,2.49,0,.18,2.33,1.84,2.64,3.22.61,2.76,3.56,2.4,3.51-1.32,0-1.33.57-2.64,0-4.49-.7-2.15-.84-6.07-2.8-7.75-.62-.52-2.78-1.11-2.78-2,0-5.22-3-2.44-3.36-6.35-.11-1.32-3.15-1.25-3.28-2.78a2.89,2.89,0,0,0-2.6-2ZM172.9,150c-5.11-.74-1.89,4.77-5.24,7.33-1.07.82-1.57,4.21-2.64,4.89-1.24.79-1.09,5.63,4.22,2.15,3.25-2.13-.07-2.57,7.45-2.23,3.65.16,5.58-2.75,3.84-5.86s3.24-2.2,1.07-6.3c-1.65-3.13,2.61-1.68,4.49-7.87,1.41-4.67-2.22-.47-1.72-5.91.15-1.54-2.28-.8-3.53.53-4.07,4.34-2.91,1.37-3,8.09,0,1.63-2.13,1.95-3.73,3.3-1.36,1.14-.54,2-1.2,1.88Zm-22.41,30.74c-5.87-1.2-6.37,3.1-7.93,4.29-.35.26-.16,2.07-2.61,2.65-1.32.31-4.17,2.5-7.37,2.43-1.12,0-8.63,6-.48,5.76,4-.11,8.42-4.27,14.32-4.11,2.33.07,7-1.8,8-4.4,1.05-2.79,5.77-.82,5.09-6.33-.22-1.87,1.94-1.36,1.87-4.36a23.68,23.68,0,0,0-.08-4.47c-.58-2.82-2.89-2.5-3.63,1.17a5.65,5.65,0,0,1-2.51,4c-2.42,1.55-2.8-.38-4,3.15-.12.37-.37.34-.71.27Zm15.18-52.43c-3,.74-.71,5.4-3.44,7.32-1.07.74,1.53,2.84-2.57,5.54-1.76,1.15-1.81,5.95-7.06,8.71-1.95,1-3.26,2.4-5.71,2.59s-1.81,1.77-4.89,2.15c-.43.05-6.51,3.86-6.65,2.46-.41-.08-.18-2.93,2.42-3.42a25.09,25.09,0,0,1,3.16-1.73c6-2.14,5.1-6.93,6-7.15,1.92-.47,3.9-5,5.59-5.37.92-.19,2.35-3.1,1.5-4.94-.71-1.55,2.08-4.9,4.14-4.92,4.84,0,.11-4.22,5.31-5.29,1.43-.29,1.43-2.08,2.34-2.35,4.54-1.37,4-14.63,6.92-12.75,0,0,3.74,9.73,1.18,10.89-4.91,2.23,1.53,5.09-3.52,7.88-1.6.89-3.16,0-4.75.38Z" transform="translate(-10.91 -15.86)"/><path class="cls-7" d="M177.41,224.78c-6.31.14-5.37-3.35-10.81,2.49-1.69,1.82-3.58,4-4.41,4.73a20.11,20.11,0,0,1-3.71,2.93c-1.39.8-3.16.85-4.49,1.76s-1.57,2.73-2.93,3.31c-3.88,1.7-8.39-2.17-12.1-2.53-7.68-.76-13.35,5.2-18,6.44-1.29.35-2.63-1.41-3.9-1-1.57.54-1.92,3.07-3.51,3.52a4.65,4.65,0,0,1-4.1-1.37c-2.78-2.64-3.49-7.91-8-10.15-6-3-22.09-7.11-26-10.35-2.76-2.31-3.43-6.49-6-9-1.28-1.22-3.68-.47-5.07-1.57-2.11-1.65,1.07-5-6.74-4.69s-12.88,6.25-10.44-12.68c.24-1.85,1.31-6.44-2.15-4.1-2.4,1.63-5.35,6.56-9.76,5.27-1.42-.41-2.1-2.42-2.14-3.9-.09-2.79,1-5.5,1.75-8.2,1.09-4,2.77-7.86,3.71-11.91.91-3.87-1.58-4.38-3.51-2.34-2.1,2.21-3.57,5.07-6,6.83-2.78,2-4.3-3.78-3.91-6,.44-2.55,2-4.82,3.32-7,.65-1.05.81-1.93-.61-1.42-1.25.45-3,1.21-4.46,1.61-.63.17-1.39-.15-1-1.17,1.53-3.78,3.46-7.63,3.71-11.71.1-1.64-2.25-2.53-2.73-4.1-.35-1.13.59-2.35.39-3.52-.15-.83-1.37-1.29-1.37-2.14,0-2.32,1-4.54,1.37-6.83a21.21,21.21,0,0,0,.48-4.88c-.18-2.41-2.22-1.73-2.61-5A120.09,120.09,0,1,0,184.18,35.65l1.14.62c6,3.29,3.55,4.67,4.39,5.76a9,9,0,0,0,2.64,1.85c2.43,1.49,5.12,2.6,7.41,4.3a8.23,8.23,0,0,1,1.66,2.44,31.14,31.14,0,0,0,2.64,4.19c.79.87,2.42.9,2.93,2,.59,1.23.26,2.34,1.17,3.36,1.28,1.44,4.57.38,6.63,5,.64,1.43-.6,5.91.59,8.59a24.11,24.11,0,0,0,4.1,5.85c2.09,2.39,5.21,3.91,6.83,6.64A16.84,16.84,0,0,1,229,93.37a6.49,6.49,0,0,1-.78,3.31c-.61,1.14-2.41,1.65-2.54,2.93-.66,6.17,10.52,20.34,13,28.21a67.19,67.19,0,0,1,3.12,20.49c0,1.76-2.14,5.4-3.32,4.1-2.72-3-.47-12-3.9-16.69s-4.46,4.36-4.3,6c.95,9,6.19,10.6,1.76,19.71-.41.84-2.9,2.8-3.71,2.34-1.11-.63-.62-2.63-1.56-3.51-.4-.38-1.22.14-1.56.58-1.16,1.54-2.58,3.16-2.73,5.08-.26,3.22,1.42,6.34,1.56,9.56a13,13,0,0,1-1,4.15,24.85,24.85,0,0,1-1.46,3.91c-.53,1-1.5,1.84-1.95,2.92-.54,1.27-.56,2.7-1,4a11.75,11.75,0,0,1-1.37,3.31c-.8,1.15-2.34,1.71-3,2.93-.77,1.38-.32,3.26-1.17,4.59-.62,1-2.32.79-2.93,1.76-.84,1.32-.1,3.35-1.07,4.58-.59.75-2.23-.34-2.83.39-1,1.2-.24,3.26-1.18,4.49a2.82,2.82,0,0,1-2.83.78c-.7-.19-.61-1.38-1.17-1.85-3.18-2.71-3.2-.33-4.19.78a2.22,2.22,0,0,1-2.83.39c-1.81-.86-2.21-4.64-2.83-6.15-.51-1.23-2.75-.42-3.52,1.27s-.39,3.39-1,5c-.2.52-1.1.54-1.27,1.07-1.16,3.6.48,7.23-4.3,10.05a7.73,7.73,0,0,1-3.71,1Z" transform="translate(-10.91 -15.86)"/><path class="cls-8" d="M20.19,125.67c-1.26,3.43-4.05,9.36-4.1,10.15s1.48,4.76,1.56,7.22c.06,1.87-1.38,4.84-1.17,5.47,2.2,6.81,3.17,14,4.1,21.08.25,1.94-.81,5.21-.59,5.86.38,1.12,4.11,8.45,5.66,12.88.68,1.93-.07,4.3,1,6,4.36,7.29,5.18,14.19,7.81,21.28.3.82,4.67,3.22,6.83,5.07,6.42,5.5,7.07,8.28,11.32,12.88a67.14,67.14,0,0,0,9.86,9c2.41,1.76,5.47,2.42,8,4,1.8,1.13,3,3,4.88,4.1a85.51,85.51,0,0,0,10.83,5A43.13,43.13,0,0,0,90.93,257a6.93,6.93,0,0,1-2.63-1.81c-.29-.33-.08-.91-.35-1.26s-1-.4-1.22-.83.3-.9.1-1.27-.84-.67-1.27-1-1-.38-1.22-.83.38-.7.34-1.07a1.93,1.93,0,0,0-.58-1.27c-.7-.6-1.81-.65-2.44-1.32a1.37,1.37,0,0,1-.2-1.46c.32-.58,1.38-.51,1.61-1.12s-.21-1.12-.58-1.52-1-.45-1.51-.73-1.32-.39-1.32-.93.88-.24,1.32-.14c1,.22,1.82,1,2.83,1.07.62.06,1.15-.47,1.75-.63a3.86,3.86,0,0,1,1.91-.39c.76.18,1.24,1,2,1.31a2.84,2.84,0,0,0,1,.1,23,23,0,0,0,3.86.49,1.91,1.91,0,0,0,1.61-.73,2,2,0,0,0-.2-2,2.28,2.28,0,0,0-1.85-.88c-.83,0-1.49.76-2.29,1a3.12,3.12,0,0,1-1.76.1c-1.05-.35-1.83-1.3-2.88-1.66-.74-.25-1.73.35-2.34-.14-2-1.61-3.22-4-5.08-5.81a2,2,0,0,0-1.61-.59c-1.18.2-2.15,1.12-3.32,1.42-.4.1-.8-.24-1.22-.25-.71,0-1.44.36-2.14.2A3.05,3.05,0,0,1,69.41,232c-.34-.47-.11-1.16-.29-1.71s-.26-1.17-.73-1.42c-1.37-.71-3.07-.58-4.45-1.27-.35-.17-.08-.83-.34-1.12-.66-.74-1.65-1.13-2.34-1.85-.15-.15-.24-.72,0-.64.73.31,1.19,1.08,1.91,1.42.41.2.95-.05,1.36.14s.79,1,1.37,1.18c.88.22,1.83-.27,2.73-.15s2,.8,3,.88c.35,0,.86-.24.88-.59,0-1.21-.93-2.38-.69-3.56a1.66,1.66,0,0,1,1.66-1.17c.84.13,1.07,1.55,1.9,1.71,1.17.21,2.29-.7,3.47-.74.93,0,1.85.83,2.73.54.49-.16-.19-1.25.25-1.51s.91.55,1.41.54.76-.63,1.22-.64.91.55,1.42.59a7.49,7.49,0,0,0,2.34-.34,3.24,3.24,0,0,0,1.56-.74,3.3,3.3,0,0,0,.78-1.8,1.85,1.85,0,0,0-.39-1.32c-.56-.72-1.6-1-2-1.81-.21-.36.43-.8.34-1.22-.18-.83-1-1.45-1.12-2.29-.07-.4.53-.72.49-1.12-.07-.59-.77-1-.78-1.61,0-.29.78-.16.73-.44-.18-1-1.07-1.65-1.32-2.59a.89.89,0,0,1,.39-.92,1.91,1.91,0,0,1,1.71-.2c1.32.74,2.11,2.19,3.37,3a5.69,5.69,0,0,0,2.58.92c.55.05,1.32,0,1.57-.53s-.59-1.06-.49-1.61.91-.56,1-1-1-.57-.73-.83,1,.26,1.47.1c.87-.3,1.49-1.2,2.39-1.42.38-.09.65.46,1,.59a5.7,5.7,0,0,0,2.25.59c.64-.06,1.09-.71,1.7-.93s1.4.09,1.86-.34,0-1.19.29-1.71c.14-.31.52-.84.78-.64.41.32.39,1,.34,1.52s-.57,1.13-.63,1.75c0,.22.38.32.39.54,0,.47-.54.94-.34,1.37a3.46,3.46,0,0,0,1.85,1.8,4.21,4.21,0,0,0,2.73-.19,4.05,4.05,0,0,0,2.25-1.61c.34-.63-.63-1.58-.2-2.15s1.29.19,1.86,0,1.36-.71,1.46-1.37-.94-1.43-.92-2.24a3.68,3.68,0,0,1,1-2.73c1.18-1,3-1,4.29-1.86.25-.16.11-.63,0-.88s-.64-.27-.83-.53a9.53,9.53,0,0,1-1.47-2.64,1,1,0,0,1,.29-1.07c.43-.27,1.08.2,1.52,0s.31-1,.73-1.22c.65-.35,1.55,0,2.2-.34A8.77,8.77,0,0,0,126.6,188c.2-.26.08-.68,0-1s-.63-.44-.68-.78a1.84,1.84,0,0,1,.34-1.61c.69-.61,1.9-.36,2.59-1,.45-.4.08-1.3.49-1.75s1.1.1,1.31-.3a6.24,6.24,0,0,0,.78-3.56,1.57,1.57,0,0,0-1.26-1.22,7.21,7.21,0,0,0-2.93.59c-.28.07-.45.39-.73.44-.45.07-1.16.3-1.37-.1s.53-.78.68-1.22-.06-.72.1-1c.49-.92,1.37-1.6,1.81-2.54.27-.6.74-1.53.24-1.95a4.85,4.85,0,0,0-3.42-.74c-.75.05-1.27.88-2,1.08-1,.27-2.23-.26-3.12.29-.61.38-.24,1.45-.63,2.05-.21.31-.77.17-1,.44a1.85,1.85,0,0,0-.49,1.12c-.07.88.81,2,.2,2.64s-1.66,0-2.3-.44-.38-1.51-1-1.91a3.19,3.19,0,0,0-2.73-.53,7,7,0,0,0-2.79,2.68c-.45.61,0,2-.78,2.15-1,.26-2-1.55-3-1.22-1.33.42-2.15,1.86-2.83,3.07-.29.51.47,1.31.09,1.76s-1.21,0-1.75.19-.92,1.06-1.56,1.18-.94-.69-1.47-.64-.75.7-1.22.88c-1,.4-2.21.38-3.22.83-.49.22-.67.92-1.17,1.12s-1.05-.25-1.51-.05c-.66.29-.9,1.5-1.61,1.42-1.67-.2-2.87-2.18-4.54-2.15-1.18,0-1.53,2.06-2.69,2.29-.67.14-.78-1.32-1.46-1.46s-1.52.49-2.29.68c-1.12.29-2.82-.24-2.88-1.22-.11-1.86,2.33-5.56,6.15-6.78,1.9-.61,4,.43,6,.05A5,5,0,0,0,90,178a2.3,2.3,0,0,0-.09-2.14c-.4-.9-1.64-1.34-1.86-2.3-.15-.64.65-1.16.93-1.75s.14-1.81.83-2,1.06.89,1.27,1.52c.11.32-.37.59-.44.92-.13.61-.42,1.3-.15,1.86.19.38.8.33,1.22.34.66,0,1.3-.31,2-.24.84.08,1.64.92,2.44.68a2.4,2.4,0,0,0,1.47-1.85c.16-1-.69-1.9-.69-2.88a16.68,16.68,0,0,1,.69-5.27c.28-.86,1.4-1.23,1.75-2.05.75-1.74.58-3.81,1.47-5.47a21.74,21.74,0,0,1,4.49-5.66c1.27-1.18,3.15-1.53,4.49-2.63,1-.82,1.26-2.35,2.34-3,2-1.27,4.69-1.26,6.64-2.64a10.56,10.56,0,0,0,3-4.19c.45-.92,1-2.15.49-3-.35-.6-1.5,0-2,.39-1.64,1.27-2.66,3.22-4.29,4.49a66.29,66.29,0,0,1-6.84,4.2,31.22,31.22,0,0,0-4,2.34c-1.09.92-1.67,2.36-2.73,3.32a39.53,39.53,0,0,1-7,5.56c-1.77,1-4.11.62-5.85,1.66-.89.53-.49,2.39-1.47,2.73-1.23.44-2.52-1.11-3.8-.87-.78.14-1.14,1.13-1.47,1.85-.59,1.3-.39,3-1.27,4.1-.65.85-2.12.65-2.92,1.37-1.43,1.28-2.19,3.19-3.61,4.49a9.81,9.81,0,0,1-4,2.44,4.51,4.51,0,0,1-3.51-.59c-.82-.57-.72-1.89-1.27-2.73-.76-1.16-1.36-2.67-2.63-3.22-.79-.34-1.67.54-2.35,1.07-1.07.83-1.52,2.57-2.83,2.93-1.5.41-3.05-1.15-4.58-.88-1,.17-1.16,2-2.15,2.05a3.13,3.13,0,0,1-2.64-1.86c-.4-.9.59-1.94.49-2.92s-1.28-1.78-1.07-2.74c.46-2.07,2.14-3.68,2.93-5.66.3-.76.83-1.82.29-2.44s-1.21.58-1.85.69c-1.45.25-3,1-4.4.39a3.28,3.28,0,0,1-1.85-3c.08-.91,1.8-.77,2.24-1.56s0-2.17.39-3.12a1.73,1.73,0,0,1,1.47-.88c.88,0,1.69,1,2.54.78,1-.34,1.23-2,2.24-2.34,1.28-.49,2.84.42,4.1-.1.6-.25.65-1.21.59-1.86-.15-1.47-1.4-2.82-1.18-4.29.13-.81,1.62-.67,2-1.37s-.13-1.73.3-2.44A8,8,0,0,1,61,135.48c1.43-.83,3.59-.41,4.68-1.66.84-.95-.11-2.55.1-3.8a13.52,13.52,0,0,1,1.27-4.4c.27-.49,1.22-.22,1.56-.68,1-1.28,1-3.19,2.15-4.29a4.37,4.37,0,0,1,3.22-.78c1,0,1.82,1.07,2.83,1.07.58,0,.79-1.16,1.36-1.07.78.12,1,1.5,1.76,1.56a2.52,2.52,0,0,0,2.44-1.27c.52-1.37-.41-2.93-.29-4.39,0-.3.4-.7.68-.59a15.91,15.91,0,0,1,2.64,1.95,17.81,17.81,0,0,0,3.7,2.44,1.81,1.81,0,0,0,2-.29c1.18-1.56,1.33-3.7,2.34-5.37a8.57,8.57,0,0,1,2.93-3.32c1.64-.87,3.93-.11,5.46-1.17,2.12-1.45,3.26-4,4.88-6a23.34,23.34,0,0,1,2.93-3.61c1-.85,2.34-2.18,3.61-1.76.92.31-1.08,1.61-1.56,2.44-.63,1.09-2.35,2.22-1.76,3.32s2.14-.36,3.13-.78,1.7-2.19,2.44-1.56-.53,1.92-1.18,2.63a22.52,22.52,0,0,1-4.68,3.91c-.8.52-2,.23-2.73.88s-.63,2.08-1.37,2.83c-1.72,1.72-4.12,2.67-5.86,4.39a3.58,3.58,0,0,0-1.17,2.54c0,.43.85-.21,1.27-.3a10.36,10.36,0,0,1,2.44-.49c.85,0,1.61.84,2.44.69,1-.2,1.67-1.71,2.73-1.66.6,0-.07,1.24-.39,1.76-.81,1.31-2.11,2.28-2.92,3.61-.45.72-1.6,2.2-.78,2.44,1.31.38,2.7-.75,3.8-1.57,1.94-1.43,3.1-3.84,5.17-5.07,1.1-.65-1.53,2-2,3.22-.2.45-.34,1.11,0,1.46s1,.25,1.46.1c1.27-.41,2.77-.72,3.61-1.76,1.68-2.06,2.07-4.95,3.61-7.12.33-.46,1.76-.84,1.66-.29-.44,2.33-2.3,4.22-2.83,6.54-.1.45.75,1,1.17.78a23.63,23.63,0,0,0,6-4.49c1.85-1.89,3-4.41,4.64-6.44a13.14,13.14,0,0,1,2.93-2.69c.42-.27,1,0,1.51-.19.9-.37,1.57-1.32,2.54-1.47s2.08.8,3.12.59a4.92,4.92,0,0,0,2.73-1.76c.51-.62.06-1.73.59-2.34,1.05-1.21,2.92-1.56,3.9-2.83.31-.39-.23-1.12-.68-1.32a7.69,7.69,0,0,0-3.86-.68c-.84.09-1.33,1.12-2.14,1.36-.66.2-1.47-.46-2.05-.09-1.69,1-2.63,3.08-4.35,4.1-.39.23-.91-.48-1-.93a5.82,5.82,0,0,1,0-2.93,11.23,11.23,0,0,1,1.68-3.44A4.29,4.29,0,0,1,136.29,94a30.73,30.73,0,0,1,7-2.25,6.76,6.76,0,0,1,3.57.54c.07,0,.29,2.43,2,1.81.74-.28.74-1.41,1.27-2s1.44-.69,1.71-1.37a4.57,4.57,0,0,0-.05-2.83c-.06-.2-.8-.43-1.28-.51-1.28-.22-2.36.86-3,1a1.17,1.17,0,0,1-1.12-.44c-.14-.22.16-.55.39-.69.43-.25,4.21-1.38,5.07-1.7,2.21-.85,4.29-2.07,6.59-2.59.83-.19,1.65.66,2.49.54s1.23-1.08,2-1.22a1.25,1.25,0,0,1,1.22.63c.45.89-.11,2.22.59,2.93,1.54,1.56,4,1.94,5.66,3.37.93.79,1.07,2.26,1.95,3.12s1.86,1.93,2.93,1.61c.78-.24,0-1.66-.2-2.44-.53-1.75-1.8-3.27-2.1-5.08-.19-1.17.8-2.32.69-3.51-.09-.91-1.46-1.54-1.27-2.44.31-1.47,2.11-2.28,2.58-3.71a4.16,4.16,0,0,0-.34-3.07,2,2,0,0,0-1.61-.83c-1-.1-1.91.4-2.88.39-1.56,0-3.15-.76-4.68-.44a7.67,7.67,0,0,0-3.22,2.1c-.61.54-.73,1.56-1.42,2-1.37.88-3.11,1-4.54,1.8-1,.56-1.59,1.72-2.63,2.2a36.33,36.33,0,0,1-7,2.29,47,47,0,0,1-8.25,1.37,1.6,1.6,0,0,1-1.22-.78.75.75,0,0,1,0-.88c.64-.51,1.67-.4,2.25-1a7.3,7.3,0,0,0,1.71-3c.31-1,1-2.54.19-3.17-1-.79-2.71-.14-3.9.39a5.35,5.35,0,0,0-2.15,2.29c-.24.4,0,1-.1,1.42s-.07.82-.39.92c-1.23.4-2.66-.07-3.85.44-2.1.89-3.79,2.53-5.76,3.66A42.5,42.5,0,0,1,120,87.54a33.52,33.52,0,0,1-6.54,2,2.9,2.9,0,0,1-2.15-.54c-.29-.23.16-.78,0-1.12s-1-.51-.92-.93c.39-1.39,1.75-2.35,2.24-3.71a1.55,1.55,0,0,0-.34-1.61c-.37-.3-1,0-1.42.2a29.79,29.79,0,0,0-5.27,2.78c-1.13.81-1.78,2.16-2.88,3a5.06,5.06,0,0,1-2,.83.4.4,0,0,1-.44-.24c-.06-.36.28-.72.2-1.07a1.85,1.85,0,0,0-.68-1.08,1.26,1.26,0,0,0-1.18-.24,7.1,7.1,0,0,0-2.14,2c-.39.47-.25,1.36-.78,1.66-1.42.81-3.25.68-4.69,1.46-.55.3-.51,1.2-1,1.61-.21.19-.75.27-.83,0-.15-.43.35-.86.39-1.31,0-.29-.38-.62-.2-.83,1.06-1.25,2.62-2,3.66-3.27a.66.66,0,0,0-.24-.88,2.4,2.4,0,0,0-1.91,0,81.52,81.52,0,0,0-10.15,5.9,1.38,1.38,0,0,0-.39,1.27c0,.35.86.48.69.78-.6,1-1.85,1.58-2.59,2.54-.31.41-.17,1.06-.49,1.47s-1,.34-1.27.78a26.29,26.29,0,0,0-1.46,4.19,6.44,6.44,0,0,1-.54,1.71c-.4.58-1.15.83-1.61,1.37-1.25,1.46-2,3.35-3.51,4.58a4.32,4.32,0,0,1-2.83.69c-.37,0-.43-.69-.78-.78-.74-.19-1.57.24-2.3,0a.71.71,0,0,1-.29-.88,42.19,42.19,0,0,1,3.13-4.74c1-1.53,2.27-2.94,3.22-4.53.14-.25.21-.68,0-.88s-.6-.06-.83.1a18.16,18.16,0,0,0-1.42,1.36c-.29.23-.73.26-1,.54s-.21.74-.44,1c-1.48,1.77-3.24,3.29-4.69,5.08-1,1.23-1.44,2.91-2.63,3.95-.56.49-1.53,0-2.2.29-1.59.75-2.83,2.13-4.44,2.83-.26.12-.64-.35-.59-.63.1-.49.72-.72.93-1.17.42-.92.29-2.1.93-2.88.24-.29.69.66,1,.49A8.1,8.1,0,0,0,57,108.33c1.84-2.41,3.19-5.17,5-7.62,1.56-2.14,3.49-4,5.07-6.15a16.17,16.17,0,0,0,1.66-2.92c.07-.15.07-.5-.1-.49-.82,0-1.57.66-2.39.63-.29,0-.62-.47-.49-.73,1.28-2.62,3.12-4.94,4.49-7.51.25-.46.57-1.05.34-1.52s-.77-.23-1.12-.09a8,8,0,0,0-2.59,1.56c-2.34,2.18-4.13,4.92-6.58,7-1,.82-2.57.66-3.52,1.51-2.12,1.9-3.33,4.7-5.51,6.54A28.43,28.43,0,0,1,44,102.76a1.32,1.32,0,0,1-1.37-.58c-.22-.31,0-.8.15-1.13.68-1.22,1.78-2.2,2.39-3.46.45-.94.12-2.19.73-3,.9-1.23,2.51-1.77,3.56-2.88A36.51,36.51,0,0,0,53,87c.32-.48,1.05-1.22.63-1.61s-1.43,0-2,.34a63.24,63.24,0,0,0-6.44,5.13,40.16,40.16,0,0,0-5.37,4.88c-.87,1.05-.71,2.82-1.76,3.7s-2.81.28-3.9,1.08c-1.32,1-1.83,2.7-2.93,3.9s-2.65,1.87-3.56,3.17c-4.19,6-5.11,11.52-7.52,18.08Z" transform="translate(-10.91 -15.86)"/><path class="cls-9" d="M58.75,111.74c-.56.49-1.53,0-2.2.29-1.59.75-2.83,2.13-4.44,2.83-.26.12-.64-.35-.59-.63.1-.49.72-.72.93-1.17.42-.92.29-2.1.93-2.88.24-.29.69.66,1,.49A8.1,8.1,0,0,0,57,108.33c1.84-2.41,3.19-5.17,5-7.62,1.56-2.14,3.49-4,5.07-6.15a16.17,16.17,0,0,0,1.66-2.92c.07-.15.07-.5-.1-.49-.82,0-1.57.66-2.39.63-.29,0-.62-.47-.49-.73,1.28-2.62,3.12-4.94,4.49-7.51.25-.46.57-1.05.34-1.52s-.77-.23-1.12-.09a8,8,0,0,0-2.59,1.56c-2.34,2.18-4.13,4.92-6.58,7-1,.82-2.57.66-3.52,1.51-2.12,1.9-3.33,4.7-5.51,6.54A28.43,28.43,0,0,1,44,102.76a1.32,1.32,0,0,1-1.37-.58c-.22-.31,0-.8.15-1.13.68-1.22,1.78-2.2,2.39-3.46.45-.94.12-2.19.73-3,.9-1.23,2.51-1.77,3.56-2.88A36.51,36.51,0,0,0,53,87c.32-.48,1.05-1.22.63-1.61s-1.43,0-2,.34a63.24,63.24,0,0,0-6.44,5.13c-1,.82-2,1.61-2.94,2.45-.14.51-.29,1-.46,1.52a30.27,30.27,0,0,1-1.36,3.41,13.56,13.56,0,0,1-1.37,2.05c-1.13,1.49-2.66,2.73-3.51,4.39a17,17,0,0,0-1.66,5.66c-.25,2,.17,4,.19,6a19.26,19.26,0,0,1-.1,3.8,18.49,18.49,0,0,1-1.26,3.42A29.64,29.64,0,0,0,31.19,127a8.07,8.07,0,0,0-.29,3.61c.32,1.51,1.45,2.74,2,4.2a11.09,11.09,0,0,1,.78,3.71c0,2.78-.87,5.51-.87,8.29a3.28,3.28,0,0,0,.87,2,2.82,2.82,0,0,0,1.47.88c1.16.28,2.43,0,3.56.34.36.12.51.64.49,1a5.08,5.08,0,0,1-.64,2.1c-.35.66-1.06,1.09-1.41,1.76a6.38,6.38,0,0,0-.39,1.7c0,.07-.06.17,0,.2a16.3,16.3,0,0,1,1.85.68c.71.46,1.72.88,1.86,1.71s-1.11,1.54-1.17,2.44a2.11,2.11,0,0,0,.87,1.9A18.15,18.15,0,0,0,44.91,165c.3.08.81-.24.92.05.25.62-.38,1.4-.09,2s1.48.67,1.7,1.37-.55,1.5-.53,2.29a3.65,3.65,0,0,0,.63,2.05,24.49,24.49,0,0,0,3.86,4.15c.91.79,1.91,1.78,3.12,1.85s2.11-1.36,3.32-1.46c.84-.08,2,.18,2.34,1,.45,1.24-1.11,2.7-.58,3.91.34.79,1.67.53,2.53.58,1.24.08,2.66-.85,3.71-.19s.73,2.26,1.27,3.31c.8,1.56,1.26,3.55,2.73,4.49,2,1.27,4.54,1.16,6.83,1.66,1,.22,2.21-.12,3,.49,1.07.81,1.09,2.59,2.15,3.42a4,4,0,0,0,3.32.88c2.16-.66,3.69-2.69,5.75-3.62a17.68,17.68,0,0,1,4.69-1.07,15.24,15.24,0,0,1,4.1-.19c1.73.22,3.33,1.54,5.07,1.36,2.33-.23,4.4-1.6,6.54-2.54,2.91-1.27,5.76-2.66,8.59-4.09.59-.3,1-.82,1.66-1.08,2.45-1,5-1.88,7.49-2.77a1.33,1.33,0,0,1,.23-.83c.29-.34,1.1.1,1.31-.3a6.24,6.24,0,0,0,.78-3.56,1.57,1.57,0,0,0-1.26-1.22,7.21,7.21,0,0,0-2.93.59c-.28.07-.45.39-.73.44-.45.07-1.16.3-1.37-.1s.53-.78.68-1.22-.06-.72.1-1c.49-.92,1.37-1.6,1.81-2.54.27-.6.74-1.53.24-1.95a4.85,4.85,0,0,0-3.42-.74c-.75.05-1.27.88-2,1.08-1,.27-2.23-.26-3.12.29-.61.38-.24,1.45-.63,2.05-.21.31-.77.17-1,.44a1.85,1.85,0,0,0-.49,1.12c-.07.88.81,2,.2,2.64s-1.66,0-2.3-.44-.38-1.51-1-1.91a3.19,3.19,0,0,0-2.73-.53,7,7,0,0,0-2.79,2.68c-.45.61,0,2-.78,2.15-1,.26-2-1.55-3-1.22-1.33.42-2.15,1.86-2.83,3.07-.29.51.47,1.31.09,1.76s-1.21,0-1.75.19-.92,1.06-1.56,1.18-.94-.69-1.47-.64-.75.7-1.22.88c-1,.4-2.21.38-3.22.83-.49.22-.67.92-1.17,1.12s-1.05-.25-1.51-.05c-.66.29-.9,1.5-1.61,1.42-1.67-.2-2.87-2.18-4.54-2.15-1.18,0-1.53,2.06-2.69,2.29-.67.14-.78-1.32-1.46-1.46s-1.52.49-2.29.68c-1.12.29-2.82-.24-2.88-1.22-.11-1.86,2.33-5.56,6.15-6.78,1.9-.61,4,.43,6,.05A5,5,0,0,0,90,178a2.3,2.3,0,0,0-.09-2.14c-.4-.9-1.64-1.34-1.86-2.3-.15-.64.65-1.16.93-1.75s.14-1.81.83-2,1.06.89,1.27,1.52c.11.32-.37.59-.44.92-.13.61-.42,1.3-.15,1.86.19.38.8.33,1.22.34.66,0,1.3-.31,2-.24.84.08,1.64.92,2.44.68a2.4,2.4,0,0,0,1.47-1.85c.16-1-.69-1.9-.69-2.88a16.68,16.68,0,0,1,.69-5.27c.28-.86,1.4-1.23,1.75-2.05.75-1.74.58-3.81,1.47-5.47a21.74,21.74,0,0,1,4.49-5.66c1.27-1.18,3.15-1.53,4.49-2.63,1-.82,1.26-2.35,2.34-3,2-1.27,4.69-1.26,6.64-2.64a10.56,10.56,0,0,0,3-4.19c.45-.92,1-2.15.49-3-.35-.6-1.5,0-2,.39-1.64,1.27-2.66,3.22-4.29,4.49a66.29,66.29,0,0,1-6.84,4.2,31.22,31.22,0,0,0-4,2.34c-1.09.92-1.67,2.36-2.73,3.32a39.53,39.53,0,0,1-7,5.56c-1.77,1-4.11.62-5.85,1.66-.89.53-.49,2.39-1.47,2.73-1.23.44-2.52-1.11-3.8-.87-.78.14-1.14,1.13-1.47,1.85-.59,1.3-.39,3-1.27,4.1-.65.85-2.12.65-2.92,1.37-1.43,1.28-2.19,3.19-3.61,4.49a9.81,9.81,0,0,1-4,2.44,4.51,4.51,0,0,1-3.51-.59c-.82-.57-.72-1.89-1.27-2.73-.76-1.16-1.36-2.67-2.63-3.22-.79-.34-1.67.54-2.35,1.07-1.07.83-1.52,2.57-2.83,2.93-1.5.41-3.05-1.15-4.58-.88-1,.17-1.16,2-2.15,2.05a3.13,3.13,0,0,1-2.64-1.86c-.4-.9.59-1.94.49-2.92s-1.28-1.78-1.07-2.74c.46-2.07,2.14-3.68,2.93-5.66.3-.76.83-1.82.29-2.44s-1.21.58-1.85.69c-1.45.25-3,1-4.4.39a3.28,3.28,0,0,1-1.85-3c.08-.91,1.8-.77,2.24-1.56s0-2.17.39-3.12a1.73,1.73,0,0,1,1.47-.88c.88,0,1.69,1,2.54.78,1-.34,1.23-2,2.24-2.34,1.28-.49,2.84.42,4.1-.1.6-.25.65-1.21.59-1.86-.15-1.47-1.4-2.82-1.18-4.29.13-.81,1.62-.67,2-1.37s-.13-1.73.3-2.44A8,8,0,0,1,61,135.48c1.43-.83,3.59-.41,4.68-1.66.84-.95-.11-2.55.1-3.8a13.52,13.52,0,0,1,1.27-4.4c.27-.49,1.22-.22,1.56-.68,1-1.28,1-3.19,2.15-4.29a4.37,4.37,0,0,1,3.22-.78c1,0,1.82,1.07,2.83,1.07.58,0,.79-1.16,1.36-1.07.78.12,1,1.5,1.76,1.56a2.52,2.52,0,0,0,2.44-1.27c.52-1.37-.41-2.93-.29-4.39,0-.3.4-.7.68-.59a15.91,15.91,0,0,1,2.64,1.95,17.81,17.81,0,0,0,3.7,2.44,1.81,1.81,0,0,0,2-.29c1.18-1.56,1.33-3.7,2.34-5.37a8.57,8.57,0,0,1,2.93-3.32c1.64-.87,3.93-.11,5.46-1.17,2.12-1.45,3.26-4,4.88-6a23.34,23.34,0,0,1,2.93-3.61c1-.85,2.34-2.18,3.61-1.76.92.31-1.08,1.61-1.56,2.44-.63,1.09-2.35,2.22-1.76,3.32s2.14-.36,3.13-.78,1.7-2.19,2.44-1.56-.53,1.92-1.18,2.63a22.52,22.52,0,0,1-4.68,3.91c-.8.52-2,.23-2.73.88s-.63,2.08-1.37,2.83c-1.72,1.72-4.12,2.67-5.86,4.39a3.58,3.58,0,0,0-1.17,2.54c0,.43.85-.21,1.27-.3a10.36,10.36,0,0,1,2.44-.49c.85,0,1.61.84,2.44.69,1-.2,1.67-1.71,2.73-1.66.6,0-.07,1.24-.39,1.76-.81,1.31-2.11,2.28-2.92,3.61-.45.72-1.6,2.2-.78,2.44,1.31.38,2.7-.75,3.8-1.57,1.94-1.43,3.1-3.84,5.17-5.07,1.1-.65-1.53,2-2,3.22-.2.45-.34,1.11,0,1.46s1,.25,1.46.1c1.27-.41,2.77-.72,3.61-1.76,1.68-2.06,2.07-4.95,3.61-7.12.33-.46,1.76-.84,1.66-.29-.44,2.33-2.3,4.22-2.83,6.54-.1.45.75,1,1.17.78a23.63,23.63,0,0,0,6-4.49c1.85-1.89,3-4.41,4.64-6.44a13.14,13.14,0,0,1,2.93-2.69c.42-.27,1,0,1.51-.19.9-.37,1.57-1.32,2.54-1.47s2.08.8,3.12.59a4.92,4.92,0,0,0,2.73-1.76c.51-.62.06-1.73.59-2.34,1.05-1.21,2.92-1.56,3.9-2.83.31-.39-.23-1.12-.68-1.32a7.69,7.69,0,0,0-3.86-.68c-.84.09-1.33,1.12-2.14,1.36-.66.2-1.47-.46-2.05-.09-1.69,1-2.63,3.08-4.35,4.1-.39.23-.91-.48-1-.93a5.82,5.82,0,0,1,0-2.93,11.23,11.23,0,0,1,1.68-3.44A4.29,4.29,0,0,1,136.29,94a30.73,30.73,0,0,1,7-2.25,6.76,6.76,0,0,1,3.57.54c.07,0,.29,2.43,2,1.81.74-.28.74-1.41,1.27-2s1.44-.69,1.71-1.37a4.57,4.57,0,0,0-.05-2.83c-.06-.2-.8-.43-1.28-.51-1.28-.22-2.36.86-3,1a1.17,1.17,0,0,1-1.12-.44c-.14-.22.16-.55.39-.69.43-.25,4.21-1.38,5.07-1.7,2.21-.85,4.29-2.07,6.59-2.59.83-.19,1.65.66,2.49.54s1.23-1.08,2-1.22a1.25,1.25,0,0,1,1.22.63c.45.89-.11,2.22.59,2.93,1.54,1.56,4,1.94,5.66,3.37.93.79,1.07,2.26,1.95,3.12s1.86,1.93,2.93,1.61c.78-.24,0-1.66-.2-2.44-.53-1.75-1.8-3.27-2.1-5.08-.19-1.17.8-2.32.69-3.51-.09-.91-1.46-1.54-1.27-2.44.31-1.47,2.11-2.28,2.58-3.71a4.16,4.16,0,0,0-.34-3.07,2,2,0,0,0-1.61-.83c-1-.1-1.91.4-2.88.39-1.56,0-3.15-.76-4.68-.44a7.67,7.67,0,0,0-3.22,2.1c-.61.54-.73,1.56-1.42,2-1.37.88-3.11,1-4.54,1.8-1,.56-1.59,1.72-2.63,2.2a36.33,36.33,0,0,1-7,2.29,47,47,0,0,1-8.25,1.37,1.6,1.6,0,0,1-1.22-.78.75.75,0,0,1,0-.88c.64-.51,1.67-.4,2.25-1a7.3,7.3,0,0,0,1.71-3c.31-1,1-2.54.19-3.17-1-.79-2.71-.14-3.9.39a5.35,5.35,0,0,0-2.15,2.29c-.24.4,0,1-.1,1.42s-.07.82-.39.92c-1.23.4-2.66-.07-3.85.44-2.1.89-3.79,2.53-5.76,3.66A42.5,42.5,0,0,1,120,87.54a33.52,33.52,0,0,1-6.54,2,2.9,2.9,0,0,1-2.15-.54c-.29-.23.16-.78,0-1.12s-1-.51-.92-.93c.39-1.39,1.75-2.35,2.24-3.71a1.55,1.55,0,0,0-.34-1.61c-.37-.3-1,0-1.42.2a29.79,29.79,0,0,0-5.27,2.78c-1.13.81-1.78,2.16-2.88,3a5.06,5.06,0,0,1-2,.83.4.4,0,0,1-.44-.24c-.06-.36.28-.72.2-1.07a1.85,1.85,0,0,0-.68-1.08,1.26,1.26,0,0,0-1.18-.24,7.1,7.1,0,0,0-2.14,2c-.39.47-.25,1.36-.78,1.66-1.42.81-3.25.68-4.69,1.46-.55.3-.51,1.2-1,1.61-.21.19-.75.27-.83,0-.15-.43.35-.86.39-1.31,0-.29-.38-.62-.2-.83,1.06-1.25,2.62-2,3.66-3.27a.66.66,0,0,0-.24-.88,2.4,2.4,0,0,0-1.91,0,81.52,81.52,0,0,0-10.15,5.9,1.38,1.38,0,0,0-.39,1.27c0,.35.86.48.69.78-.6,1-1.85,1.58-2.59,2.54-.31.41-.17,1.06-.49,1.47s-1,.34-1.27.78a26.29,26.29,0,0,0-1.46,4.19,6.44,6.44,0,0,1-.54,1.71c-.4.58-1.15.83-1.61,1.37-1.25,1.46-2,3.35-3.51,4.58a4.32,4.32,0,0,1-2.83.69c-.37,0-.43-.69-.78-.78-.74-.19-1.57.24-2.3,0a.71.71,0,0,1-.29-.88,42.19,42.19,0,0,1,3.13-4.74c1-1.53,2.27-2.94,3.22-4.53.14-.25.21-.68,0-.88s-.6-.06-.83.1a18.16,18.16,0,0,0-1.42,1.36c-.29.23-.73.26-1,.54s-.21.74-.44,1c-1.48,1.77-3.24,3.29-4.69,5.08-1,1.23-1.44,2.91-2.63,3.95Z" transform="translate(-10.91 -15.86)"/><path class="cls-10" d="M109.52,95.38c2.08-.9,3.76-4.58,7.61-3.52.68.19,1.27,4.18,5.27,2.25,2.81-1.36,4.9-3.92,7.61-5.47,5.73-3.26,7.55-.22,2.34,5.66-2.21,2.51-4.5,5-6.53,7.62a3.51,3.51,0,0,0-.88,2c0,.77.58,1.43.88,2.14.66,1.65,1.17,1.59-.88,3-1.29.9-2.83,1.41-4.1,2.34a10.54,10.54,0,0,0-2.93,2.83c-1.07,1.78-1.37,3.93-2.24,5.81a12.4,12.4,0,0,1-.88,1.49,3.17,3.17,0,0,0,.49-.48c1.68-2.06,2.07-4.95,3.61-7.12.33-.46,1.76-.84,1.66-.29-.44,2.33-2.3,4.22-2.83,6.54-.1.45.75,1,1.17.78a23.63,23.63,0,0,0,6-4.49c1.85-1.89,3-4.41,4.64-6.44a13.14,13.14,0,0,1,2.93-2.69c.42-.27,1,0,1.51-.19.9-.37,1.57-1.32,2.54-1.47s2.08.8,3.12.59a4.92,4.92,0,0,0,2.73-1.76c.51-.62.06-1.73.59-2.34,1.05-1.21,2.92-1.56,3.9-2.83.31-.39-.23-1.12-.68-1.32a7.69,7.69,0,0,0-3.86-.68c-.84.09-1.33,1.12-2.14,1.36-.66.2-1.47-.46-2.05-.09-1.69,1-2.63,3.08-4.35,4.1-.39.23-.91-.48-1-.93a5.82,5.82,0,0,1,0-2.93,11.23,11.23,0,0,1,1.68-3.44A4.29,4.29,0,0,1,136.29,94a30.73,30.73,0,0,1,7-2.25,6.76,6.76,0,0,1,3.57.54c.07,0,.29,2.43,2,1.81.74-.28.74-1.41,1.27-2s1.44-.69,1.71-1.37a4.57,4.57,0,0,0-.05-2.83c-.06-.2-.8-.43-1.28-.51-1.28-.22-2.36.86-3,1a1.17,1.17,0,0,1-1.12-.44c-.14-.22.16-.55.39-.69.43-.25,4.21-1.38,5.07-1.7,2.21-.85,4.29-2.07,6.59-2.59.83-.19,1.65.66,2.49.54s1.23-1.08,2-1.22a1.25,1.25,0,0,1,1.22.63c.45.89-.11,2.22.59,2.93,1.54,1.56,4,1.94,5.66,3.37.93.79,1.07,2.26,1.95,3.12s1.86,1.93,2.93,1.61c.78-.24,0-1.66-.2-2.44-.53-1.75-1.8-3.27-2.1-5.08-.19-1.17.8-2.32.69-3.51-.09-.91-1.46-1.54-1.27-2.44.31-1.47,2.11-2.28,2.58-3.71a4.16,4.16,0,0,0-.34-3.07,2,2,0,0,0-1.61-.83c-1-.1-1.91.4-2.88.39-1.56,0-3.15-.76-4.68-.44a7.67,7.67,0,0,0-3.22,2.1c-.61.54-.73,1.56-1.42,2-1.37.88-3.11,1-4.54,1.8-1,.56-1.59,1.72-2.63,2.2a36.33,36.33,0,0,1-7,2.29,47,47,0,0,1-8.25,1.37,1.6,1.6,0,0,1-1.22-.78.75.75,0,0,1,0-.88c.64-.51,1.67-.4,2.25-1a7.3,7.3,0,0,0,1.71-3c.31-1,1-2.54.19-3.17-1-.79-2.71-.14-3.9.39a5.35,5.35,0,0,0-2.15,2.29c-.24.4,0,1-.1,1.42s-.07.82-.39.92c-1.23.4-2.66-.07-3.85.44-2.1.89-3.79,2.53-5.76,3.66A42.5,42.5,0,0,1,120,87.54a33.52,33.52,0,0,1-6.54,2,2.9,2.9,0,0,1-2.15-.54c-.29-.23.16-.78,0-1.12s-1-.51-.92-.93c.39-1.39,1.75-2.35,2.24-3.71a1.55,1.55,0,0,0-.34-1.61c-.37-.3-1,0-1.42.2a29.79,29.79,0,0,0-5.27,2.78c-1.13.81-1.78,2.16-2.88,3a5.06,5.06,0,0,1-2,.83.4.4,0,0,1-.44-.24c-.06-.36.28-.72.2-1.07a1.85,1.85,0,0,0-.68-1.08,1.26,1.26,0,0,0-1.18-.24,7.1,7.1,0,0,0-2.14,2c-.39.47-.25,1.36-.78,1.66-1.42.81-3.25.68-4.69,1.46-.55.3-.51,1.2-1,1.61-.21.19-.75.27-.83,0-.15-.43.35-.86.39-1.31,0-.29-.38-.62-.2-.83,1.06-1.25,2.62-2,3.66-3.27a.66.66,0,0,0-.24-.88,2.4,2.4,0,0,0-1.91,0,81.52,81.52,0,0,0-10.15,5.9,1.38,1.38,0,0,0-.39,1.27c0,.35.86.48.69.78-.6,1-1.85,1.58-2.59,2.54-.31.41-.17,1.06-.49,1.47s-1,.34-1.27.78a26.29,26.29,0,0,0-1.46,4.19,6.44,6.44,0,0,1-.54,1.71c-.4.58-1.15.83-1.61,1.37-1.25,1.46-2,3.35-3.51,4.58a2.28,2.28,0,0,1-.53.34,4.71,4.71,0,0,0,1.48-.5c.82-.52,1.35-1.43,2.14-2,.26-.18.67-.37.93-.19a1,1,0,0,1,.29,1c-2.39,8.74,4.08-.86,6.3-3,.24-.23.81.22,1,0,1.78-2.24,2.73-6,4.3-7.86,2.74-3.32-2.65,11.49,3.61,5.9,0,0,10.7-14.47,7.42-7.22-.89,2,1.75.42,2.53.1,1.19-.48,1.78-2.1,3-2.34.81-.16,1.23,1.32,2.05,1.36a12.26,12.26,0,0,0,5.37-1ZM34.13,105.82a4.36,4.36,0,0,1,2.15-1.95c.47-.13.5,1,1,1.07s2.15-1.55,3.71-.19a1.26,1.26,0,0,1,.09,1.46c-.87,1.44-2.45,2.36-3.31,3.81-1.13,1.89,1.12,2.63,2.14,1.76,1.71-1.47,2.59-3.7,4.1-5.37,1-1.1,1.73-.84,1.74-.09,0,1.62-1.07,3.44,0,3.58a1.89,1.89,0,0,0,1.49-.69,18.91,18.91,0,0,0,2.64-3.58c1.12-2,1-5.25,3.32-5.66.59-.11,1.15.4,1.75.48,1.93.28,2.32-3.33,3.52-5.17.86-1.32,2.49.22,3,.29a1.65,1.65,0,0,0,1.27-.39c2.5-2.08,1.3-2.09,1.76-3.85a8.83,8.83,0,0,1,.92-2,20.42,20.42,0,0,1,5.27-6.89A.79.79,0,0,0,70.6,82c-.16-.34-.77-.23-1.12-.09a8,8,0,0,0-2.59,1.56c-2.34,2.18-4.13,4.92-6.58,7-1,.82-2.57.66-3.52,1.51-2.12,1.9-3.33,4.7-5.51,6.54A28.43,28.43,0,0,1,44,102.76a1.32,1.32,0,0,1-1.37-.58c-.22-.31,0-.8.15-1.13.68-1.22,1.78-2.2,2.39-3.46.45-.94.12-2.19.73-3,.9-1.23,2.51-1.77,3.56-2.88A36.51,36.51,0,0,0,53,87c.32-.48,1.05-1.22.63-1.61s-1.43,0-2,.34a63.24,63.24,0,0,0-6.44,5.13,40.16,40.16,0,0,0-5.37,4.88c-.87,1.05-.71,2.82-1.76,3.7s-2.81.28-3.9,1.08c-1.32,1-1.83,2.7-2.93,3.9s-2.65,1.87-3.56,3.17A32.13,32.13,0,0,0,25,112.2a44.53,44.53,0,0,0-1.91,4.7c.32-.54.66-1.09,1-1.62,1.92-2.9,4.23-5.51,5.33-5.36.61.09.19,1.24.1,1.86-.13.89.47,1.58,1.27.19,1.16-2,2-4.22,3.31-6.15Z" transform="translate(-10.91 -15.86)"/><path class="cls-11" d="M45.69,153.83c.52-.91,0-2.17.39-3.12a1.73,1.73,0,0,1,1.47-.88c.88,0,1.69,1,2.54.78,1-.34,1.23-2,2.24-2.34,1.28-.49,2.84.42,4.1-.1.6-.25.65-1.21.59-1.86-.15-1.47-1.4-2.82-1.18-4.29.13-.81,1.62-.67,2-1.37s-.13-1.73.3-2.44A8,8,0,0,1,61,135.48c1.43-.83,3.59-.41,4.68-1.66.84-.95-.11-2.55.1-3.8a13.52,13.52,0,0,1,1.27-4.4c.27-.49,1.22-.22,1.56-.68,1-1.28,1-3.19,2.15-4.29a2.21,2.21,0,0,1,.6-.41,3.8,3.8,0,0,0-1.7.67c-.68.58-.38,2.58-1.71,2.68-.37,0-2-1.07-2.78.1-.54.86.45,2.68.29,3.27-.1.35-.72.31-.88.63s.17,2.55-1.7,3.32c-1,.42-3.44-1.31-4.25,1-.38,1.08,1,3.43-.68,4.05-.5.18-1.15.14-1.52.53s0,1.15-.39,1.47c-6.06,4.77-11,.68-16.78,5.8-2.59,2.3-2.42,4.38.22,4.08,1.16-.13,2.21-.44,2.7.61a2.39,2.39,0,0,1-.58,2.24c-1.3,1.74-7,4.06-7.66,6.35-.57,2,3.21,1.16,3.07,2.14-.08.54-4.63,6-.39,8,2.06,1,4.66-1.29,6.83-.59.94.3,0,2,.39,2.93S45.67,171,46,172.1c.25.76-.73,1.55-.58,2.34.2,1.09,1.8,1.85,1.56,2.93-.6,2.62-5.8,7.84-3.76,10.47,1.41,1.82,6.44-2.33,9.54-5,6-5.13,1.61,3.68,5.93.56,1.9-1.38,3.21-3.42,4.88-5.08,2.33-2.32,2.75,1.15,6.44-.39a23,23,0,0,0,3.27-2.15c3.48-2.2,3.45-.2,2.25,1.07-1.52,1.62.62,2.79,1.31,1.06.41-1,.91-2.85,1.46-4.45,1-3,2.67-5,4-3.17.38.52,1.09.69,1.62-.31.33-.64.84-2.81,1.35-4.49.87-2.9,1.52-2.61,1.19-.09a11,11,0,0,0-.16,2.59c.2,1.68,1.26,1.88,2,.22s1.45-4.39,2-6.09A6,6,0,0,1,93,159c1-.53,1.15.11,1.11.6s.07.63.39.72c1.92.53,8.37-8,9.41-9.76a14.43,14.43,0,0,1,1.71-2.44c.84-.89,4-2.39,5.13-2.93,1.6-.75,3.34-1.22,4.88-2.1a10.87,10.87,0,0,0,2.68-2.24,28.86,28.86,0,0,0,1.71-2.76c.7-1,1.84-2.32,2.33-1.39a1.29,1.29,0,0,0-.16-.41c-.35-.6-1.5,0-2,.39-1.64,1.27-2.66,3.22-4.29,4.49a66.29,66.29,0,0,1-6.84,4.2,31.22,31.22,0,0,0-4,2.34c-1.09.92-1.67,2.36-2.73,3.32a39.53,39.53,0,0,1-7,5.56c-1.77,1-4.11.62-5.85,1.66-.89.53-.49,2.39-1.47,2.73-1.23.44-2.52-1.11-3.8-.87-.78.14-1.14,1.13-1.47,1.85-.59,1.3-.39,3-1.27,4.1-.65.85-2.12.65-2.92,1.37-1.43,1.28-2.19,3.19-3.61,4.49a9.81,9.81,0,0,1-4,2.44,4.51,4.51,0,0,1-3.51-.59c-.82-.57-.72-1.89-1.27-2.73-.76-1.16-1.36-2.67-2.63-3.22-.79-.34-1.67.54-2.35,1.07-1.07.83-1.52,2.57-2.83,2.93-1.5.41-3.05-1.15-4.58-.88-1,.17-1.16,2-2.15,2.05a3.13,3.13,0,0,1-2.64-1.86c-.4-.9.59-1.94.49-2.92s-1.28-1.78-1.07-2.74c.46-2.07,2.14-3.68,2.93-5.66.3-.76.83-1.82.29-2.44s-1.21.58-1.85.69c-1.45.25-3,1-4.4.39a3.28,3.28,0,0,1-1.85-3c.08-.91,1.8-.77,2.24-1.56Zm2.82-18.64a3.4,3.4,0,0,0-3.31-.39c-.34.18-.52.78-.82,1-.61.45-2.49.84-3.83,1.85a4.31,4.31,0,0,0-1.43,1.48c-.38.81,0,1,.3.93,1.93-.14,3.76-1,5.67-1.36a25.84,25.84,0,0,1,3.5-.3c2,0,1.62-1.87-.08-3.22Z" transform="translate(-10.91 -15.86)"/><path class="cls-12" d="M108.64,177.74c-.45.61,0,2-.78,2.15-1,.26-2-1.55-3-1.22-1.33.42-2.15,1.86-2.83,3.07-.29.51.47,1.31.09,1.76s-1.21,0-1.75.19-.92,1.06-1.56,1.18-.94-.69-1.47-.64-.75.7-1.22.88c-1,.4-2.21.38-3.22.83-.49.22-.67.92-1.17,1.12s-1.05-.25-1.51-.05c-.66.29-.9,1.5-1.61,1.42-1.67-.2-2.87-2.18-4.54-2.15-1.18,0-1.53,2.06-2.69,2.29-.67.14-.78-1.32-1.46-1.46s-1.52.49-2.29.68c-1.12.29-2.82-.24-2.88-1.22A5.53,5.53,0,0,1,76,183.4c-.16.16-.32.33-.47.5-.81.94-3.22,5.95-1,5.88.72,0,1.84-1.19,2.78-.68.4.21.39,1,.83,1.07.76.18,1.38-1.25,2.2,0s.5,2.38,2.88,2.83,2.64-1.41,3.7-2c.33-.19.77.22,1.13.1.7-.22,1.68-2.7,3.9-2.24.59.12,1,1.1,1.56.92s.59-1.64,1.65-2.3,1.69.3,2.3.16c.41-.1.5-.46.91-.56s.64.08,1.1.07c.88,0,1.71-.71,2.58-.59s2,3.42,4.64,1.42c1.48-1.13.68-3.68,1.36-5.42.48-1.22,1.84-1.09,1.86-.14a5.77,5.77,0,0,1-.34,1.67c-.18.63-.49,1.5.56,1.43a1,1,0,0,0,.85-.57,14.69,14.69,0,0,0,.56-2.73c.16-.74.47-1.44,1.38-1.36a.5.5,0,0,1,.5.43,3.73,3.73,0,0,1-.19,1.18.29.29,0,0,0,.48.29,3.22,3.22,0,0,0,.74-.78c1.25-1.71,1.1-2.2,2.64-2.29.87-.06,2.52-.49,2.87-1.42.26-.7-.68-1.71-.78-2.39s.47-.54.82-.41.55.15.69,0c.59-.61.83-2.26,1.64-2.54.61-.2.39.94,1.21.53,1.08-.52.9-1.19,1.5-1.79a2.89,2.89,0,0,1,2.74-.59,5.09,5.09,0,0,0-3.32-.65c-.75.05-1.27.88-2,1.08-1,.27-2.23-.26-3.12.29-.61.38-.24,1.45-.63,2.05-.21.31-.77.17-1,.44a1.85,1.85,0,0,0-.49,1.12c-.07.88.81,2,.2,2.64s-1.66,0-2.3-.44-.38-1.51-1-1.91a3.19,3.19,0,0,0-2.73-.53,7,7,0,0,0-2.79,2.68Z" transform="translate(-10.91 -15.86)"/><path class="cls-13" d="M215.67,58.13a23.43,23.43,0,0,1-4.15-3.22c-1.28-1.14-2.23-2.64-3.61-3.66a5.2,5.2,0,0,0-2.59-.93.79.79,0,0,0-.73.59,1.22,1.22,0,0,0,.34,1c1.54,1.62,3.26,3.06,4.93,4.54a39.53,39.53,0,0,1,4,3.32c.57.66.58,1.68,1,2.44a3.36,3.36,0,0,0,1,1.07c1.12.73,2.46,1.09,3.52,1.9a3.43,3.43,0,0,1,1.17,1.71c.07.23-.32.6-.54.49-1-.51-1.59-1.53-2.54-2.1-.36-.22-1-.53-1.26-.19s0,1,.19,1.51.66.68.78,1.12c.08.28-.37.57-.24.83a62.76,62.76,0,0,0,3.56,6,17.45,17.45,0,0,1,1.61,2.25,1,1,0,0,1-.19,1,1.09,1.09,0,0,1-1.22.2c-.84-.65-1.1-1.85-1.86-2.59a4.56,4.56,0,0,0-2-1.12c-.55-.15-1.3-.26-1.71.15a3.35,3.35,0,0,0-.83,2.39c0,.56.82.86.93,1.41s-.33,1.1-.29,1.66c.07,1,.56,2,.63,3.08a20.35,20.35,0,0,1-.24,2.44c-.12,2-.27,4-.25,6,0,.87.48,1.72.34,2.58s-.68,2-.73,3c-.08,1.69.19,3,.12,4.71,0,.83-.4,1.51-.43,2.34a27.87,27.87,0,0,0,.46,3,19.69,19.69,0,0,1-.49,2.93,8.08,8.08,0,0,0,.1,1.47,15.86,15.86,0,0,1,.39,3.41,12.36,12.36,0,0,1-1.17,2.83,23.45,23.45,0,0,0-1.08,2.73c-.18.73.05,1.54-.19,2.25a6.57,6.57,0,0,0-.68,1.9c0,1.64.81,2.8.78,4.44a11.47,11.47,0,0,1-1.37,4.2c-1.11,2.47-3,4.18-4.1,6.25a2.4,2.4,0,0,0-.29,1.65c.07.26.51.21.78.2,1.59-.08,4.08-1.24,4.78-2.34,1-1.52.4-4,.88-5.27.16-.43.93-.19,1.27-.49a8.56,8.56,0,0,0,1.76-2.25,3.37,3.37,0,0,0,.48-1.95c-.18-1.32-1.11-2.48-1.27-3.8a17.19,17.19,0,0,1,.3-4.69,4.49,4.49,0,0,1,.88-2.34c.3-.35.95,0,1.36-.2a2.14,2.14,0,0,0,1.08-1c.32-.76.14-1.66.39-2.44.11-.38.28-1,.68-1s.88.56,1,1c.15.8-.46,1.63-.3,2.44.1.49.72.72,1,1.12a1.51,1.51,0,0,1,.34.68c.06.6-.21,1.22-.1,1.81a1.22,1.22,0,0,0,.64,1c.43.14,1.11.07,1.31-.34.58-1.17.34-2.6.73-3.85.19-.6.84-1,1-1.61a6.27,6.27,0,0,0,.1-3c-.29-1.08-1.26-1.88-1.66-2.93-.87-2.3.94-2.43,1.32-4.58a4.9,4.9,0,0,0-.2-2.49c-.43-1.19-1.58-2-1.9-3.27a8.18,8.18,0,0,1,.29-2.93,20.63,20.63,0,0,0,.29-2.05c0-.91-.26-1.82-.19-2.73.05-.68.43-1.29.54-2s-.08-1.24,0-1.85c0-.15.31-.37.39-.24a4.32,4.32,0,0,1,.69,1.9,20.48,20.48,0,0,1-.2,3.22c-.07,1.17-.28,2.34-.24,3.51.09,2.79.15,2.27,2,3.76.38.32,2.21,2.18,2.78.93.67-1.46.52-3.16.78-4.74a5,5,0,0,0,.3-1.8c-.19-.83-1-1.43-1.22-2.25-.13-.39.24-.82.14-1.22-.17-.72-.77-1.31-.93-2a20.69,20.69,0,0,1,0-2.49c0-.45-.35-.87-.3-1.32,0-.21.32-.51.49-.39a2.2,2.2,0,0,1,.78,1.22c.34,1,.34,2.15.69,3.17.15.45.66.72.78,1.17.25,1-.08,2.18.29,3.17.25.68,1.09,1,1.46,1.61.28.47.17,1.1.44,1.57s1.08.89,1.37,1.51.13,1.66.49,2.39c.56,1.17,2-.18,1.85-.93-.23-1.06-1-1.36-1.46-2.36-.16-.38-.05-1.16-.2-1.54-.29-.75-1.07-1.23-1.41-2a1.55,1.55,0,0,1-.06-1.28c.16-.38.62-.44.76-.82a8.1,8.1,0,0,0,.3-1.2,3,3,0,0,1,.36-.71c.3-.5.13-1.24.54-1.65.21-.22.72,0,.88.24.31.51,0,1.28.34,1.76s1.39.76,1.95,1.31,1,1.56,1.66,2.22c.82.86,1.53.37,2,2.69.16.73-.32,1.55,0,2.24s1.24,1.23,1.71,2c.17.26,0,.65.15.92.52.87,1.38,1.5,1.85,2.39a6.32,6.32,0,0,1,.54,2.1c0,.42-.28.89-.1,1.27.47,1,1.5,1.71,2,2.73.31.71,0,1.58.25,2.3a1.26,1.26,0,0,0,1,.83,1,1,0,0,0,.88-.78,7.53,7.53,0,0,0-.29-3.23c-.26-.86-1-1.49-1.37-2.34-.91-2.36-1.39-4.87-2.34-7.22-.72-1.77-1.77-3.38-2.64-5.07-.49-1-.9-2-1.46-2.93-.36-.6-1-1-1.27-1.66a3.93,3.93,0,0,1-.63-2.49c.11-.46.77.58,1,1,.61.95.86,2.1,1.51,3s1.53,1.2,2.05,2,.39,1.59.78,2.3c.56,1,1.43,1.78,2,2.73.84,1.26,1.6,2.58,2.35,3.9s1.37,2.61,2.06,3.92c-1.42-4.55-3-10.84-5.09-15-.25-.51-7.17-13.23-7.42-13.47s-2.73-1.94-3.9-3.13-1.67-2.41-2.64-3.51c-.8-.92-1.86-1.59-2.63-2.54s-1.38-2.66-1.66-2.73a45.51,45.51,0,0,1-8.1-4c-1-.85-1.43-2.37-2.54-3.13-.9-.61-2.22-.23-3.17-.75Zm-9,87.41c-2.51-1.91-2.41,3.39-3.51,4.35A7.48,7.48,0,0,0,201.3,154a14.71,14.71,0,0,1-1.41,5.78c-.27.63-.73,2,.31,2,2.73,0,2.92-9.36,4.32-9.27,1.12.07,3.22-1.46,2.48-3-.44-.94-1.36-1.61-.23-2.51.55-.43-.05-1.4-.12-1.45Z" transform="translate(-10.91 -15.86)"/><path class="cls-14" d="M208.15,202.44c-1.24-.12-1.08-1.1-1.08-2.16s4.87-5.7,5.61-7.46c.28-.64,1.95-3.3,2.95-2.53.34.27.67,1.52,1.83-.29.66-1,0-2.94,2.88-5.79.6-.6,2.5-.73,2,1.81-.47,2.25,2.79-.06,3,4,0,.32-.56.53-.58.87-.08,1-2.94-.16-2.94,1.7,0,1.47,2.09,2.05.1,3.61-1,.8,3.21,2.54,3.47,4.12,0,0,.27.63.29.72.07.38-.05.84.19,1.13s.67,3.23,2.28-.26c.38-.82,2-2.41,2.76-1.25.38.59,1,.16.92,2.35-.06,1.21,2.27,3.14,1,4.47-.58.62-2.3,2.05-2.48,2.4s-.44,2.5-1.82,2.2c-.05,0-.61-1.48-1.07-.11,0,0,0,.18,0,.25a12.81,12.81,0,0,0-.34,1.61c-.08,1.58-1.12,3.81-2.89,3.81-1.59,0-1.3.94-2.32,2.64-.66,1.09-2.58,6-4.41,5.56-.39-.1.55-1.62-.56-1.62s-1.65,1.35-2.1,2.11c-.56.94,2.28-.49,1.47,1.81a7.85,7.85,0,0,1-1,1.6,5.54,5.54,0,0,1-1.07.92c-1,.65-4.38,1.72-4.93,2.42-.3.39-.44-.34-1.09,1.39-.38,1-5.59.4-4.26,1.86.51.58,2.53-.88,2.38.92-.11,1.25-5.57-1.17-5,1.52.42,1.79-2.58.15-3.67,2.41a4,4,0,0,1-3.24,1.29c-.47-.11-4,1.7-4.49,2.35-1.35,1.65-2.49.06-.68-1.42,2.74-2.23.22-1.44,2.11-3.11.2-.18,5.56-3.52,2.57-3.24a20,20,0,0,0-2.57,1.1c-.32.22-2.21.72-2.21.18,0-2.22,1.65-.53,1.65-2.9,0-.82,5.19-3.29,1.07-2.57-1.39.24-.95-.55-2.51,1.27-.27.33-2.74.85-3.65,1.46-.36.23-.78.47-1.3.78a20.57,20.57,0,0,1-3.32,1.81c-1.7.64-4.59,3.34-7.07,3.8-.89.16-2.22,1.23-4.07,1.47-3.84.48-1.68-1.28-3.74-1.13-.74.06.82.85-.59,1.83s-3.46,1.32-5.07,1.7a20.2,20.2,0,0,1-6.51.44,4.58,4.58,0,0,0-2.76.48c-2.82,2.68-4.11,3.45-8.22,2.23-1.15-.35-6.78.8-4.91-1.87.64-.92,10.86-1.24,12.8-2.45,1.11-.69,5,.54,5-2,0-3.41-.34-1.95,2.28-3.66s.59-2.67,3-3.42c2.81-.88,2.07-.34,4.39-2.47,1.19-1.1,1.65-1.68,3-2.79s2-.29,4-.79a2.93,2.93,0,0,0,.83-.53c1.17-.82,2.64-4,1.82-5.24-.45-.69,1.13-1.63-.06-2.72-1.44-1.32,2.06-4.22,2.65-5,1.25-1.81,4.48-4.05,3.79-6.17-.22-.69-2.69,2.83-3,2-.56-1.52-4,.33-.81-5.62,1.8-3.33,1.68-1.21,2.93-2,.18-.12.13-.94.6-1.22a4.83,4.83,0,0,0,1.31-1.81c.17-.28,1.34-3.21,1.68-3.22.83,0,1,1.74.28,2.69-1,1.3-2.3,4.36-1.82,5.94.24.79-.55,1.57.4,2.12.16.09.92,1.49,1.65.27.39-.67-.55-2,1.88-2,1.15,0,2-2.56,3.61-3.61,2.16-1.36.54,2.82,1.81,1.09.1-.14,1.44-1.08,1.68.12.1.48.53.53.5,1.7,0,.71,1.72-.17,2.24-1.09s3.86-4.08,3.86-1.06c0,1.32-1,1.64.13,3.25.09.13-.55,1.39,1.29.47,0,0,2.19-2.64,2.29-.43,0,.26-.43,1.18,1,.43s.59-2.19,2.48-3.56a9.7,9.7,0,0,0,2-1.84c2.38-2.49-.42-1.88-1-.06-.08.25-.18.11-.54.08Zm-18.4,6.41c-.88-1.1-1.76,1.26-1.76,2.33,0,1.42.19,2.58-.65,3.72-1.34,1.81,1.61,5.53-.85,6.41-.7.25-1.08,3-2.23,3.89-.41.32-2.28,2.82-3.15,3.4s.7.83-.36,1.63c-.56.42-5.63,4.44-2.45,4.29,2-.09,3.76-1.82,5.61-2.86.74-.41,1-1.13,2.74-1.84.52-.21,2.35-1.65,2.41.16,0,.67,2.19,1.7,2.25-.87,0-1.44,2.78.19,3.38-2.17.2-.79,3.85-.3,2.79-2.49-.56-1.16,2.44-.68.36-1.84-1-.56-1.89.76-2.75-1.65-.32-.88-1.39-1-1.69.4-.36,1.66.12,3.43-2.49,3.8-1.39.19-.8-3.09,0-4s-1.8-2.73-.44-4.87c.69-1.07-1.23-1.59-.27-4.36a3.21,3.21,0,0,0-.41-3.11Zm16.68,7.86a4.83,4.83,0,0,0,2.54,5.15c1.24.66,4.16-.41,3.95-1.25-.09-.34-1.26.22-2.59-.12-1-.25-1.56-1.25-1.45-2.74.19-2.63.91-3.76,1.37-4.32s2.16-1.67,1.66-.33c-.25.64-4.25,10.06,5.73,2.64,3-2.23,6-5.52,4.6-9.16-2-5.38-14.92.25-15.81,10.13Zm8.08-9c-1.79,1.51-3.37,3.72-1.5,3.61.33,0,4.46-4.31,5.06-1.38.26,1.26-1.83,3.36-3.13,3.88-.25.1-2.4,1.11-1.4,1.53,1.94.83,7.41-4,7.79-7.11.19-1.51-1.11-2.08-2.41-2.17a6.07,6.07,0,0,0-4.41,1.64Zm-26.82-19.09c-1-1.37-2.41-.2-2.25-2.86.09-1.6.66-.68.39-4.18-.36-4.56,4.85-.86,6.52-7.48.3-1.19,1,.38,1.59-3.61.19-1.26,3.54-3.74,4-6,.16-.78,3-2.23.06,3.52-.33.66-1.91,4.59-1.35,5.3a2.54,2.54,0,0,1-1,3.29c-2,1-2.85,4.4-3.61,6.45-1.24,3.33-.7,5.21-3.73,8-.16.15-3.52,6.71-3,1.9.15-1.49,3.51-2.86,2.45-4.36Z" transform="translate(-10.91 -15.86)"/><path class="cls-15" d="M124.88,28.15c1.07-.27,12.84-2.87,13.06-2.77a7,7,0,0,0,6.05.26c3.08,1.08,9.56,1.21,11.14,1.51s9.71,2.1,12.19,3.22c-1.12-.16-5.23-1.27-6.62.16a3.31,3.31,0,0,1-2.93.83c-1.68.67-.28,1.72,1,1.82,1.15.1,2.56,0,3,.29,4.66,3.23,9.76,1.91,10.65,2.83,1.85,1.92,6.46,1.62,6.65,2.38.72,2.76-3.34.27-4.09,1.69s-1.94.48-3.89,0c-4.86-1.18-3.75,1.81-.78,1.94,2.12.1,4.44,2.58,3.18,2.53s-.89,1.43-2.34,1.37c-8.34-.36,1.63,2.33,2.17,3.25,2.38,4-4.28.26-4.4.25-3.66-.26-.93,2.54-.84,2.61.68.51,5.94,1.88,6.1,2.57.7,3.19-4.84-.23-5.57-.19-3.53.16-1.06,2.81.28,3.4s4.34,3.5,4.37,3.51c1.63.54,1.11-.52,1.11-1.16,0-3.27,7.71.73,8.4,1.4,4.52,4.39-7-1.08-5.65,1.91,2,4.46-4,4.3-4.32,2.17-.4-2.68-3.75-4.6-6.3-4.6-2.19,0-2.44-.83-2.55-1.67-.39-2.86-4.32-2-4,0a7.27,7.27,0,0,0,1.16,2.58,2.43,2.43,0,0,1,.35,2.78c-.73,1.56-2.34-1.13-3.09-1.87-2.14-2.12-1.92-3.69-1.77-4.85.25-2-.5-3.15-3.57-2.66-1.06.17-1.69-.75-2.05-1.07-1.48-1.33-3.69-2.36-4.31,0-.25.94.56,7.36-1.23,7.72-3.54.73-1.27-4.09-1.82-4.71-1.3-1.45-.11-4.1-.84-4.84-2-2.08-2.09,3.67-3.84,4.15-3.63,1-.74-2.23-.74-2.3.31-4.78-4.5-.71-4.52-.71-2.71.11-4.25,5.24-6.42,3.35-2-1.71,2-2.36,1.3-3.88-1-2-4.34,1.12-6.12.41-.65-.26,1.07-4.4-4.48-.28-3.31,2.45-3.24-.64-2.85-1,1.31-1.12-.7-1-2.29-.44-3.28,1.16-6.63,4.65-8.72,6.37-1.38,1.14-2.56,1.12-2.13,0s1.33-2.26.51-2.75c-1.54-.91-5.63,1.44-6.78.22s-.45-2,.74-2.5c.75-.3,6-1.6,7.09-1.82,4-.79,10-1.31,10.17-2.93.22-2.93-11.28,2-13.1,1.47-2.46-.7-5.88,3.26-8,1.43s1.73-3.16,1.89-3.39c2.26-3.17,12.69-1.72,14.94-4.64,2.45-3.16-2.6-1.67-3.65-2.41-3.26-2.28,6.56-2.35,6.87-2.63,3.37-2.94-2.61-1.16-3.44-1.16C107,37.3,96,41.8,96,39.27s6.64-1.91,9.69-3.6c1.78-1,5.25-.59,7.39-.59,8.84,0,3-1.72,2.8-2-1.73-2.66,2.09-1.31,2.86-2,1-1,7.16-.46,8.69-.2.69.11,2.47.29,2.35-.6-.05-.36-1,0-.4-.73s-1.92-1.7-4.5-1.31ZM91.09,53.36c-4.67-2.06-4.63,3.25-7.6,3-2.2-.15-4.12,2.65-5.42,4.22-1.75,2.09-1,2.31.73,1.48,2.54-1.22,4.5-3.73,7.8-3.17,2.77.48,0-3,4-2.84,2.11.1,3-1.62.49-2.74ZM74.64,63.48C73.05,64.59,74,63,73,64.81c-.53,1-1.84-.22-2.19,1.52-.12.56-2.39,1.83-2.88,2.58-.34.51-4.51,4.19-1,2.88.58-.22,1.49-2.18,3.51-3,.65-.25,2.87-1.93,2.87-2.59,0-2,.59-.51,1.94-1.76.42-.39-.41-1.1-.58-1Z" transform="translate(-10.91 -15.86)"/><path class="cls-16" d="M247.73,91.39c-.25-.51-7.17-13.23-7.42-13.47s-2.73-1.94-3.9-3.13-1.67-2.41-2.64-3.51c-.8-.92-1.86-1.59-2.63-2.54s-1.38-2.66-1.66-2.73a16.94,16.94,0,0,1-1.9-.74,43.5,43.5,0,0,1-6.2-3.26c-1-.85-1.43-2.37-2.54-3.13-.9-.61-2.22-.23-3.17-.75a23.43,23.43,0,0,1-4.15-3.22c-1.28-1.14-2.23-2.64-3.61-3.66a5.2,5.2,0,0,0-2.59-.93.79.79,0,0,0-.73.59,1.22,1.22,0,0,0,.34,1c1.54,1.62,3.26,3.06,4.93,4.54a39.53,39.53,0,0,1,4,3.32c.57.66.58,1.68,1,2.44a3.36,3.36,0,0,0,1,1.07c1.12.73,2.46,1.09,3.52,1.9a3.43,3.43,0,0,1,1.17,1.71c.07.23-.32.6-.54.49-1-.51-1.59-1.53-2.54-2.1-.36-.22-1-.53-1.26-.19s0,1,.19,1.51.66.68.78,1.12c.08.28-.37.57-.24.83a62.76,62.76,0,0,0,3.56,6,17.45,17.45,0,0,1,1.61,2.25,1,1,0,0,1-.19,1,1.09,1.09,0,0,1-1.22.2c-.84-.65-1.1-1.85-1.86-2.59a4.56,4.56,0,0,0-2-1.12,2.62,2.62,0,0,0-1.3-.08,25.46,25.46,0,0,0,3.89,5.4c2.09,2.39,5.21,3.91,6.83,6.64A16.84,16.84,0,0,1,229,93.37a6.49,6.49,0,0,1-.78,3.31c-.55,1-2,1.54-2.45,2.56.28.24.68.51,1.27,1,.38.32,2.21,2.18,2.78.93.67-1.46.52-3.16.78-4.74a5,5,0,0,0,.3-1.8c-.19-.83-1-1.43-1.22-2.25-.13-.39.24-.82.14-1.22-.17-.72-.77-1.31-.93-2a20.69,20.69,0,0,1,0-2.49c0-.45-.35-.87-.3-1.32,0-.21.32-.51.49-.39a2.2,2.2,0,0,1,.78,1.22c.34,1,.34,2.15.69,3.17.15.45.66.72.78,1.17.25,1-.08,2.18.29,3.17.25.68,1.09,1,1.46,1.61.28.47.17,1.1.44,1.57s1.08.89,1.37,1.51.13,1.66.49,2.39c.56,1.17,2-.18,1.85-.93-.23-1.06-1-1.36-1.46-2.36-.16-.38-.05-1.16-.2-1.54-.29-.75-1.07-1.23-1.41-2a1.55,1.55,0,0,1-.06-1.28c.16-.38.62-.44.76-.82a8.1,8.1,0,0,0,.3-1.2,3,3,0,0,1,.36-.71c.3-.5.13-1.24.54-1.65.21-.22.72,0,.88.24.31.51,0,1.28.34,1.76s1.39.76,1.95,1.31,1,1.56,1.66,2.22c.82.86,1.53.37,2,2.69.16.73-.32,1.55,0,2.24s1.24,1.23,1.71,2c.17.26,0,.65.15.92.52.87,1.38,1.5,1.85,2.39a6.32,6.32,0,0,1,.54,2.1c0,.42-.28.89-.1,1.27.47,1,1.5,1.71,2,2.73.31.71,0,1.58.25,2.3a1.26,1.26,0,0,0,1,.83,1,1,0,0,0,.88-.78,7.53,7.53,0,0,0-.29-3.23c-.26-.86-1-1.49-1.37-2.34-.91-2.36-1.39-4.87-2.34-7.22-.72-1.77-1.77-3.38-2.64-5.07-.49-1-.9-2-1.46-2.93-.36-.6-1-1-1.27-1.66a3.93,3.93,0,0,1-.63-2.49c.11-.46.77.58,1,1,.61.95.86,2.1,1.51,3s1.53,1.2,2.05,2,.39,1.59.78,2.3c.56,1,1.43,1.78,2,2.73.84,1.26,1.6,2.58,2.35,3.9s1.37,2.61,2.06,3.92c-1.42-4.55-3-10.84-5.09-15Z" transform="translate(-10.91 -15.86)"/><path class="cls-17" d="M57.66,209.35c-7.83.32-12.88,6.25-10.44-12.68.24-1.85,1.31-6.44-2.15-4.1-2.4,1.63-5.35,6.56-9.76,5.27-1.42-.41-2.1-2.42-2.14-3.9-.09-2.79,1-5.5,1.75-8.2,1.09-4,2.77-7.86,3.71-11.91.91-3.87-1.58-4.38-3.51-2.34-2.1,2.21-3.57,5.07-6,6.83-2.78,2-4.3-3.78-3.91-6,.44-2.55,2-4.82,3.32-7,.65-1.05.81-1.93-.61-1.42-1.25.45-3,1.21-4.46,1.61-.63.17-1.39-.15-1-1.17,1.53-3.78,3.46-7.63,3.71-11.71.1-1.64-2.25-2.53-2.73-4.1-.35-1.13.59-2.35.39-3.52-.15-.83-1.37-1.29-1.37-2.14,0-2.32,1-4.54,1.37-6.83a21.21,21.21,0,0,0,.48-4.88c-.25-3.47-4.39-.54-1.86-12.14-.7,2.15-1.37,4.37-2.23,6.72-1.26,3.43-4.05,9.36-4.1,10.15s1.48,4.76,1.56,7.22c.06,1.87-1.38,4.84-1.17,5.47,2.2,6.81,3.17,14,4.1,21.08.25,1.94-.81,5.21-.59,5.86.38,1.12,4.11,8.45,5.66,12.88.68,1.93-.07,4.3,1,6,4.36,7.29,5.18,14.19,7.81,21.28.3.82,4.67,3.22,6.83,5.07,6.42,5.5,7.07,8.28,11.32,12.88a67.14,67.14,0,0,0,9.86,9c2.41,1.76,5.47,2.42,8,4,1.8,1.13,3,3,4.88,4.1a85.51,85.51,0,0,0,10.83,5A43.13,43.13,0,0,0,90.93,257a6.93,6.93,0,0,1-2.63-1.81c-.29-.33-.08-.91-.35-1.26s-1-.4-1.22-.83.3-.9.1-1.27-.84-.67-1.27-1-1-.38-1.22-.83.38-.7.34-1.07a1.93,1.93,0,0,0-.58-1.27c-.7-.6-1.81-.65-2.44-1.32a1.37,1.37,0,0,1-.2-1.46c.32-.58,1.38-.51,1.61-1.12s-.21-1.12-.58-1.52-1-.45-1.51-.73-1.32-.39-1.32-.93.88-.24,1.32-.14c1,.22,1.82,1,2.83,1.07.62.06,1.15-.47,1.75-.63a3.86,3.86,0,0,1,1.91-.39c.76.18,1.24,1,2,1.31a2.84,2.84,0,0,0,1,.1,23,23,0,0,0,3.86.49,1.91,1.91,0,0,0,1.61-.73,2,2,0,0,0-.2-2,2.28,2.28,0,0,0-1.85-.88c-.83,0-1.49.76-2.29,1a3.12,3.12,0,0,1-1.76.1c-1.05-.35-1.83-1.3-2.88-1.66-.74-.25-1.73.35-2.34-.14-2-1.61-3.22-4-5.08-5.81a2,2,0,0,0-1.61-.59c-1.18.2-2.15,1.12-3.32,1.42-.4.1-.8-.24-1.22-.25-.71,0-1.44.36-2.14.2A3.05,3.05,0,0,1,69.41,232c-.34-.47-.11-1.16-.29-1.71s-.26-1.17-.73-1.42c-1.37-.71-3.07-.58-4.45-1.27-.35-.17-.08-.83-.34-1.12-.66-.74-1.65-1.13-2.34-1.85-.15-.15-.24-.72,0-.64.73.31,1.19,1.08,1.91,1.42.41.2.95-.05,1.36.14s.79,1,1.37,1.18c.88.22,1.83-.27,2.73-.15s2,.8,3,.88c.35,0,.86-.24.88-.59,0-1.21-.93-2.38-.69-3.56a1.66,1.66,0,0,1,1.66-1.17l.1,0c-1.32-2.19-2.2-4.77-4-6.51-1.28-1.22-3.68-.47-5.07-1.57-2.11-1.65,1.07-5-6.74-4.69Z" transform="translate(-10.91 -15.86)"/><path class="cls-18" d="M77.85,231.66c-1.18.2-2.15,1.12-3.32,1.42-.4.1-.8-.24-1.22-.25-.71,0-1.44.36-2.14.2A3.05,3.05,0,0,1,69.41,232c-.34-.47-.11-1.16-.29-1.71s-.26-1.17-.73-1.42c-1.37-.71-3.07-.58-4.45-1.27-.35-.17-.08-.83-.34-1.12-.66-.74-1.65-1.13-2.34-1.85-.15-.15-.24-.72,0-.64.73.31,1.19,1.08,1.91,1.42.41.2.95-.05,1.36.14s.79,1,1.37,1.18c.88.22,1.83-.27,2.73-.15s2,.8,3,.88c.35,0,.86-.24.88-.59,0-1.21-.93-2.38-.69-3.56a1.66,1.66,0,0,1,1.66-1.17c.84.13,1.07,1.55,1.9,1.71,1.17.21,2.29-.7,3.47-.74.93,0,1.85.83,2.73.54.49-.16-.19-1.25.25-1.51s.91.55,1.41.54.76-.63,1.22-.64.91.55,1.42.59a7.49,7.49,0,0,0,2.34-.34,3.24,3.24,0,0,0,1.56-.74,3.3,3.3,0,0,0,.78-1.8,1.85,1.85,0,0,0-.39-1.32c-.56-.72-1.6-1-2-1.81-.21-.36.43-.8.34-1.22-.18-.83-1-1.45-1.12-2.29-.07-.4.53-.72.49-1.12-.07-.59-.77-1-.78-1.61,0-.29.78-.16.73-.44-.18-1-1.07-1.65-1.32-2.59a.89.89,0,0,1,.39-.92l0,0a1.41,1.41,0,0,0-1,.85c-.17.58.58,1.89-.1,2.44-.41.33-1.93-.11-1.7,1.32.09.56.54,1.09.44,1.66-.07.37-.71.39-.88.73s.06,1.15-.3,1.51c-.67.69-1.84.71-2.53,1.37a1.25,1.25,0,0,0-.2,1.22c.27.9,1,1.62,1.32,2.49s-.54.88-1.07.83c-.79-.09-2.9-1.06-3.52-.54-1.21,1-1.44,2.78-3.37,1.07-.89-.79-1.44.27-2.24-.09-2.35-1.08-5.67-2.91-6.3-2.2-.36.4,1.68,4-1.26,2.78-1.64-.66-3.12-1.67-4.69-2.49-7.77-4.05-2.91.7-1.07,3.56a.7.7,0,0,1-.2.83c-.4.3-1.1,0-1.46.39a.87.87,0,0,0,0,1c1.18,1.7,2.75,3.08,4,4.73a4,4,0,0,1,.68,1.47c0,.17,0,.48-.19.48-1,0-2.1-1-2.69-1.07-.35,0-1.23,1.24-1.85,1.12s-1.08-.86-1.71-1.12a7.11,7.11,0,0,0-1.61-.24h0a5.23,5.23,0,0,1-1.82-.38,14.24,14.24,0,0,1-2.78-2.3c-.8-.79-1.32-1.83-2.15-2.58a14,14,0,0,0-2-1.43c3.55,3.65,4.65,6.16,8,9.82a67.14,67.14,0,0,0,9.86,9c2.41,1.76,5.47,2.42,8,4,1.8,1.13,3,3,4.88,4.1a85.51,85.51,0,0,0,10.83,5A43.57,43.57,0,0,0,90.92,257a7.09,7.09,0,0,1-2.62-1.81c-.29-.33-.08-.91-.35-1.26s-1-.4-1.22-.83.3-.9.1-1.27-.84-.67-1.27-1-1-.38-1.22-.83.38-.7.34-1.07a1.93,1.93,0,0,0-.58-1.27c-.7-.6-1.81-.65-2.44-1.32a1.37,1.37,0,0,1-.2-1.46c.32-.58,1.38-.51,1.61-1.12s-.21-1.12-.58-1.52-1-.45-1.51-.73-1.32-.39-1.32-.93.88-.24,1.32-.14c1,.22,1.82,1,2.83,1.07.62.06,1.15-.47,1.75-.63a3.86,3.86,0,0,1,1.91-.39c.76.18,1.24,1,2,1.31a2.84,2.84,0,0,0,1,.1,23,23,0,0,0,3.86.49,1.91,1.91,0,0,0,1.61-.73,2,2,0,0,0-.2-2,2.28,2.28,0,0,0-1.85-.88c-.83,0-1.49.76-2.29,1a3.12,3.12,0,0,1-1.76.1c-1.05-.35-1.83-1.3-2.88-1.66-.74-.25-1.73.35-2.34-.14-2-1.61-3.22-4-5.08-5.81a2,2,0,0,0-1.61-.59Z" transform="translate(-10.91 -15.86)"/><path class="cls-19" d="M77.85,231.66c-1.18.2-2.15,1.12-3.32,1.42-.4.1-.8-.24-1.22-.25-.71,0-1.44.36-2.14.2A3.05,3.05,0,0,1,69.41,232c-.34-.47-.11-1.16-.29-1.71s-.26-1.17-.73-1.42c-1.37-.71-3.07-.58-4.45-1.27-.35-.17-.08-.83-.34-1.12-.66-.74-1.65-1.13-2.34-1.85-.15-.15-.24-.72,0-.64.73.31,1.19,1.08,1.91,1.42.41.2.95-.05,1.36.14s.79,1,1.37,1.18c.88.22,1.83-.27,2.73-.15s2,.8,3,.88c.35,0,.86-.24.88-.59,0-1.21-.93-2.38-.69-3.56a1.66,1.66,0,0,1,1.66-1.17l.1,0c-.21-.35-.41-.71-.6-1.07-.42.11-.8.38-1.26.17-2.35-1.08-5.67-2.91-6.3-2.2-.36.4,1.68,4-1.26,2.78-1.64-.66-3.12-1.67-4.69-2.49-7.77-4.05-2.91.7-1.07,3.56a.7.7,0,0,1-.2.83c-.4.3-1.1,0-1.46.39a.87.87,0,0,0,0,1c1.18,1.7,2.75,3.08,4,4.73a4,4,0,0,1,.68,1.47c0,.17,0,.48-.19.48-1,0-2.1-1-2.69-1.07-.35,0-1.23,1.24-1.85,1.12s-1.08-.86-1.71-1.12a7.11,7.11,0,0,0-1.61-.24h0a5.23,5.23,0,0,1-1.82-.38,14.24,14.24,0,0,1-2.78-2.3c-.8-.79-1.32-1.83-2.15-2.58a14,14,0,0,0-2-1.43c3.55,3.65,4.65,6.16,8,9.82a67.14,67.14,0,0,0,9.86,9c2.41,1.76,5.47,2.42,8,4,1.8,1.13,3,3,4.88,4.1a85.51,85.51,0,0,0,10.83,5A43.57,43.57,0,0,0,90.92,257a7.09,7.09,0,0,1-2.62-1.81c-.29-.33-.08-.91-.35-1.26s-1-.4-1.22-.83.3-.9.1-1.27-.84-.67-1.27-1-1-.38-1.22-.83.38-.7.34-1.07a1.93,1.93,0,0,0-.58-1.27c-.7-.6-1.81-.65-2.44-1.32a1.37,1.37,0,0,1-.2-1.46c.32-.58,1.38-.51,1.61-1.12s-.21-1.12-.58-1.52-1-.45-1.51-.73-1.32-.39-1.32-.93.88-.24,1.32-.14c1,.22,1.82,1,2.83,1.07.62.06,1.15-.47,1.75-.63a3.86,3.86,0,0,1,1.91-.39c.76.18,1.24,1,2,1.31a2.84,2.84,0,0,0,1,.1,23,23,0,0,0,3.86.49,1.91,1.91,0,0,0,1.61-.73,2,2,0,0,0-.2-2,2.28,2.28,0,0,0-1.85-.88c-.83,0-1.49.76-2.29,1a3.12,3.12,0,0,1-1.76.1c-1.05-.35-1.83-1.3-2.88-1.66-.74-.25-1.73.35-2.34-.14-2-1.61-3.22-4-5.08-5.81a2,2,0,0,0-1.61-.59Z" transform="translate(-10.91 -15.86)"/><path class="cls-20" d="M73.28,66.22c0-2,.59-.51,1.94-1.76.42-.39-.41-1.1-.58-1C73.05,64.59,74,63,73,64.81c-.53,1-1.84-.22-2.19,1.52-.12.56-2.39,1.83-2.88,2.58-.34.51-4.51,4.19-1,2.88.58-.22,1.49-2.18,3.51-3,.65-.25,2.87-1.93,2.87-2.59Zm5.52-4.11c2.54-1.22,4.5-3.73,7.8-3.17,2.77.48,0-3,4-2.84,2.11.1,3-1.62.49-2.74-4.67-2.06-4.63,3.25-7.6,3-2.2-.15-4.12,2.65-5.42,4.22-1.75,2.09-1,2.31.73,1.48ZM95.67,55.9c1.15,1.22,5.24-1.13,6.78-.22.82.49-.11,1.65-.51,2.75s.75,1.19,2.13,0c2.09-1.72,5.44-5.21,8.72-6.37,1.59-.56,3.6-.68,2.29.44-.39.33-.46,3.42,2.85,1,5.55-4.12,3.83,0,4.48.28,1.78.71,5.15-2.4,6.12-.41.73,1.52-3.27,2.17-1.3,3.88,2.17,1.89,3.71-3.24,6.42-3.35,0,0,4.83-4.07,4.52.71,0,.07-2.89,3.31.74,2.3,1.75-.48,1.8-6.23,3.84-4.15.73.74-.46,3.39.84,4.84.55.62-1.72,5.44,1.82,4.71,1.79-.36,1-6.78,1.23-7.72.62-2.37,2.83-1.34,4.31,0,.36.32,1,1.24,2.05,1.07,3.07-.49,3.82.64,3.57,2.66-.15,1.16-.37,2.73,1.77,4.85.75.74,2.36,3.43,3.09,1.87a2.43,2.43,0,0,0-.35-2.78,7.27,7.27,0,0,1-1.16-2.58c-.29-2,3.64-2.89,4,0,.11.84.36,1.67,2.55,1.67,2.55,0,5.9,1.92,6.3,4.6.32,2.13,6.35,2.29,4.32-2.17-.47-1,.59-1,2-.82a29.48,29.48,0,0,0-1.87-2.66c-.29-.37-.59-.73-.9-1.07-1.15-.12-2,.17-2,1.24,0,.64.52,1.7-1.11,1.16,0,0-3-2.88-4.37-3.51s-3.81-3.24-.28-3.4c.45,0,2.67,1.24,4.19,1.5-1-.61-2.11-1.13-3.07-1.83-1.31-1-2.47-2.11-3.71-3.17a.66.66,0,0,1-.14-.15c-1-1.57-1.65-3.42-3-4.73a16,16,0,0,0-4.93-3c-1.63-.7-3.51-.69-5.17-1.31-2.53-1-4.79-2.6-7.37-3.42a45.23,45.23,0,0,0-9.08-1.81c-1.43-.14-2.85.45-4.29.49a13.69,13.69,0,0,1-3.32-.24c-.79-.17-1.43-.93-2.24-.93a85,85,0,0,0-10.79,1,14,14,0,0,0-2.26.62,5.2,5.2,0,0,1-.79.81c-.31.28-10.13.35-6.87,2.63,1,.74,6.1-.75,3.65,2.41C107.19,46.44,96.76,45,94.5,48.16c-.16.23-4.06,1.48-1.89,3.39s5.5-2.13,8-1.43c1.82.51,13.32-4.4,13.1-1.47-.12,1.62-6.14,2.14-10.17,2.93-1.12.22-6.34,1.52-7.09,1.82-1.19.48-1.91,1.25-.74,2.5Z" transform="translate(-10.91 -15.86)"/><path class="cls-21" d="M63.46,167.79c-.79-.34-1.67.54-2.35,1.07-1.07.83-1.52,2.57-2.83,2.93-1.5.41-3.05-1.15-4.58-.88-1,.17-1.16,2-2.15,2.05a3.13,3.13,0,0,1-2.64-1.86c-.4-.9.59-1.94.49-2.92s-1.28-1.78-1.07-2.74c.46-2.07,2.14-3.68,2.93-5.66.3-.76.83-1.82.29-2.44s-1.21.58-1.85.69c-1.45.25-3,1-4.4.39a3.28,3.28,0,0,1-1.85-3c.08-.91,1.8-.77,2.24-1.56s0-2.17.39-3.12a1.73,1.73,0,0,1,1.47-.88c.88,0,1.69,1,2.54.78,1-.34,1.23-2,2.24-2.34,1.28-.49,2.84.42,4.1-.1.6-.25.65-1.21.59-1.86-.15-1.47-1.4-2.82-1.18-4.29.13-.81,1.62-.67,2-1.37s-.13-1.73.3-2.44A8,8,0,0,1,61,135.48c1.43-.83,3.59-.41,4.68-1.66.84-.95-.11-2.55.1-3.8a13.52,13.52,0,0,1,1.27-4.4c.27-.49,1.22-.22,1.56-.68,1-1.28,1-3.19,2.15-4.29a2.21,2.21,0,0,1,.6-.41,3.8,3.8,0,0,0-1.7.67c-.68.58-.38,2.58-1.71,2.68-.37,0-2-1.07-2.78.1-.54.86.45,2.68.29,3.27-.1.35-.72.31-.88.63s.17,2.55-1.7,3.32c-1,.42-3.44-1.31-4.25,1-.38,1.08,1,3.43-.68,4.05-.5.18-1.15.14-1.52.53s0,1.15-.39,1.47c-6.06,4.77-11,.68-16.78,5.8-2.59,2.3-2.42,4.38.22,4.08,1.16-.13,2.21-.44,2.7.61a2.39,2.39,0,0,1-.58,2.24,12.94,12.94,0,0,1-3,2.32l-.06.1c-.35.66-1.06,1.09-1.41,1.76a6.38,6.38,0,0,0-.39,1.7c0,.07-.06.17,0,.2a16.3,16.3,0,0,1,1.85.68c.71.46,1.72.88,1.86,1.71s-1.11,1.54-1.17,2.44a2.11,2.11,0,0,0,.87,1.9A18.15,18.15,0,0,0,44.91,165c.3.08.81-.24.92.05.25.62-.38,1.4-.09,2s1.48.67,1.7,1.37-.55,1.5-.53,2.29a3.65,3.65,0,0,0,.63,2.05,24.49,24.49,0,0,0,3.86,4.15c.91.79,1.91,1.78,3.12,1.85s2.11-1.36,3.32-1.46c.84-.08,2,.18,2.34,1,.45,1.24-1.11,2.7-.58,3.91a.72.72,0,0,0,.25.32c1.33-1.27,2.42-2.81,3.73-4.11,2.33-2.32,2.75,1.15,6.44-.39a23,23,0,0,0,3.27-2.15c3.48-2.2,3.45-.2,2.25,1.07-1.52,1.62.62,2.79,1.31,1.06.41-1,.91-2.85,1.46-4.45,1-3,2.67-5,4-3.17.38.52,1.09.69,1.62-.31.33-.64.84-2.81,1.35-4.49.87-2.9,1.52-2.61,1.19-.09a11,11,0,0,0-.16,2.59c.2,1.68,1.26,1.88,2,.22s1.45-4.39,2-6.09A6,6,0,0,1,93,159c1-.53,1.15.11,1.11.6s.07.63.39.72c1.92.53,8.37-8,9.41-9.76a14.43,14.43,0,0,1,1.71-2.44c.84-.89,4-2.39,5.13-2.93,1.6-.75,3.34-1.22,4.88-2.1a10.87,10.87,0,0,0,2.68-2.24,28.86,28.86,0,0,0,1.71-2.76c.7-1,1.84-2.32,2.33-1.39a1.29,1.29,0,0,0-.16-.41c-.35-.6-1.5,0-2,.39-1.64,1.27-2.66,3.22-4.29,4.49a66.29,66.29,0,0,1-6.84,4.2,31.22,31.22,0,0,0-4,2.34c-1.09.92-1.67,2.36-2.73,3.32a39.53,39.53,0,0,1-7,5.56c-1.77,1-4.11.62-5.85,1.66-.89.53-.49,2.39-1.47,2.73-1.23.44-2.52-1.11-3.8-.87-.78.14-1.14,1.13-1.47,1.85-.59,1.3-.39,3-1.27,4.1-.65.85-2.12.65-2.92,1.37-1.43,1.28-2.19,3.19-3.61,4.49a9.81,9.81,0,0,1-4,2.44,4.51,4.51,0,0,1-3.51-.59c-.82-.57-.72-1.89-1.27-2.73-.76-1.16-1.36-2.67-2.63-3.22ZM45.09,138.71a25.84,25.84,0,0,1,3.5-.3c2,0,1.62-1.87-.08-3.22a3.4,3.4,0,0,0-3.31-.39c-.34.18-.52.78-.82,1-.61.45-2.49.84-3.83,1.85a4.31,4.31,0,0,0-1.43,1.48c-.38.81,0,1,.3.93,1.93-.14,3.76-1,5.67-1.36Z" transform="translate(-10.91 -15.86)"/><path class="cls-22" d="M91.37,31.7c2.94-.5,10.21-4.17,14.47-5.37,4.48-1.26,6.4-1.24,11.13-1.39,1.46-.05,2.09-.72,2.21-1.58.63-4.61-10.27-10.55-16.24-5.69-4.87-2.49-11.09-3-14.81,2.38-2.88,4.15-5,13,3.24,11.65Z" transform="translate(-10.91 -15.86)"/><path class="cls-23" d="M91,22.63c-3.65,2.24-4.75,7.9-1,9.21a11.85,11.85,0,0,0,1.36-.14c2.94-.5,10.21-4.17,14.47-5.37a34,34,0,0,1,10-1.35c4.1-2.7-5-6.5-8.1-6.15A4.25,4.25,0,0,0,104,23.77c-3.5-1.94-8.87-3.68-13-1.14Z" transform="translate(-10.91 -15.86)"/><path class="cls-24" d="M54.8,205c-3.77-4.58-10-15.33-8-27.66,1.79-11,9.8-10.69,12.8-9.31-.33-8.73,2.53-18,8.94-23.76,8.32-7.44,15.57.79,12.84,7.21-10.4,24.41-17.32,40-5.9,67.47,8.39,20.21,25.22,37.37,43.09,46.5-18.09,6.57-41.17-1.91-57.16-21.13-5.31-6.38-9-16.55-3.43-19.81-3.37-1.08-8-5.76-8.86-11-.58-3.5,1-7.62,5.68-8.49Z" transform="translate(-10.91 -15.86)"/><path class="cls-25" d="M77,161.93c.42-9.49-5.47-13.27-11.33-5.25-4.54,6.23-4.53,15.61-2.41,20.5-18.26-5.77-13.51,20.49-4.37,31-13.25,2.91-5,16,4.24,16.77-11.32,13.73,15.22,39.46,42,42.65a37.56,37.56,0,0,0,13.45-2.19c-17.87-9.13-34.7-26.29-43.09-46.5-9.7-23.37-6.17-38.1,1.49-57Z" transform="translate(-10.91 -15.86)"/><path class="cls-26" d="M30.86,185C33.61,178.29,30.2,169.6,37,142c1.25-5,3.48-9.87,5-14.69.33-1,.95-2.85-2.15-2.48-3.65.43-9.6,6.81-11.31,9.83-3.33,5.84-2.29,9.78.34,14.18-9.26,3-16.3,10.07-15.71,20.62.78,13.83,15.35,21,17.67,15.46Z" transform="translate(-10.91 -15.86)"/><path class="cls-27" d="M23.75,171.9c-10.09,4.92-10.64-5.59-8.16-13a18.7,18.7,0,0,0-2.4,10.58c.78,13.83,15.35,21,17.67,15.46C33.61,178.29,30.2,169.6,37,142c1.25-5,3.48-9.87,5-14.69.33-1,.95-2.85-2.15-2.48-2,.24-4.68,2.25-7,4.53,3.17-2.57,5.22-3.34,5.41-2.71.33,1.09-2.37,6-3.74,12.57-1,4.63.55,10.66-4.52,10.15,4.53,8.37,2.64,18.15-6.28,22.5Z" transform="translate(-10.91 -15.86)"/><path class="cls-28" d="M69.41,104.88c1.22-5.75,6.21-11,11.21-14.2-3.42-1.89-10.08-8.44-1.29-19.82,8.49-11,25.87-17.9,30.23-6.2,2.75-3,6-5.24,9.93-4.48a5.55,5.55,0,0,1,3.79,3.47c1.86-6.48,10.9-16.75,23.32-15.24,16.25,2,19.26,17.06,2.49,23-11.34,4-21.68,3.54-34.62,9.3-13.67,6.08-19.92,10.09-28.12,22.36-1.58,2.36-2.71,5-4.4,7.29-6.68,9-14.72,4.71-12.54-5.52Z" transform="translate(-10.91 -15.86)"/><path class="cls-29" d="M86.46,95.75c-.12,4.57-5.88,13.49-9.77,16-3,2-6.11,1.94-7.54-2,.9,6.49,7.31,8.07,12.8.67,1.69-2.28,2.82-4.93,4.4-7.29,8.2-12.26,14.45-16.28,28.12-22.36,12.94-5.76,23.28-5.25,34.62-9.3,16.77-6,13.76-21.07-2.49-23-.41,0-.82-.09-1.23-.11,14.08,2.88,13.95,12.68,6.89,18.49a30.3,30.3,0,0,1-22,6.18c-3-.4-5.47-1.85-7.3-5.47-1.9,8.93-12.34,9.43-13.62-.74.33,16.18-15.59,26.89-27,24.14,3.16,1,4.22,2.75,4.16,4.85Z" transform="translate(-10.91 -15.86)"/><path class="cls-30" d="M251,100.07c9.37-18.18-12.73-36.61-25.19-22.21-3.65-9-21.17-11.94-27.65-3.24a14.05,14.05,0,0,0-2.17,12.06c-5.31-3.3-10.65.16-11.51,8-17.57-4.25-43.18,5.22-52.88,28-8.41,19.8,1.08,34.35,16,33s18-19.36,24.5-30.21c3.87-6.51,9.64-15.08,17.18-9.89,2.85,2,8.69,6.41,14.7,2,6.75-5,11.6-14.66,21.67-21.3,10.5-6.92,22-8.45,25.33,3.78Z" transform="translate(-10.91 -15.86)"/><path class="cls-31" d="M183.24,102.4c-11.87,5.29-15.54,18.86-22.27,29-12.36,18.71-32.45,21.67-31.55-2.42-4.16,16.52,4.84,27.94,18.15,26.71,15-1.39,18-19.36,24.5-30.21,3.87-6.51,9.64-15.08,17.18-9.89,2.85,2,8.69,6.41,14.7,2,6.75-5,11.6-14.66,21.67-21.3,10.5-6.92,22-8.45,25.33,3.78A18.9,18.9,0,0,0,244.1,75c2.54,3,5.2,7.49.88,10.23s-14.72-1.45-19-4.62c-.28,14.22-13.79,17-24.65,10.74a22.31,22.31,0,0,1,6.33,5.86c5.23,7.8-2.89,13.53-9.14,11.63-1.91-.58-3.53-2.06-4.66-4.7-1.83-4.25-6.44-3.58-10.63-1.72Z" transform="translate(-10.91 -15.86)"/><path class="cls-32" d="M266.16,106.2c-.9-1-2.27-2.08-3.61-1.87a3.08,3.08,0,0,0-2.14,2.76c-.25,3.64,6.12,14.31,4.54,26.59-.4,3-1.39,5.23-.64,5.75s2.65-.29,5.68-2.87c5.54-4.7,10.28-12.58,5-18.08a16.11,16.11,0,0,0-6.73-4.26,8.63,8.63,0,0,0-2.06-8Z" transform="translate(-10.91 -15.86)"/><path class="cls-33" d="M273.39,124c-.54-4.32-4.73-7.61-8.71-8.2.83-3.78-2-8.49-4-6.53,1.23,4.81,5.57,14,4.23,24.4-.4,3-1.39,5.23-.64,5.75.4.29,1.41.08,2.91-.82,4.26-3.69,6.79-9.67,6.17-14.6Z" transform="translate(-10.91 -15.86)"/><path class="cls-34" d="M188.34,257.18c-36.73,27.33-69.09-25.72-42.13-36-7.16-23.65,9.46-52.11,27.11-48,4.11,1,8.12,4.64,8.71,11.9,4.26-15.47,27-28.33,29.69-11.91,12.15-22,41.24-20.56,32.86,14.55C241,202.62,236,211,228.93,219c-12.68,14.49-39.33,11.48-18-13.35,1.33-1.56,4.42-5.46,7.3-9.64,6-8.68,7.23-19.65-6-14.43-3.53,1.4-8.67,5.76-11.33,7.09-6.72,3.37-10.24,3-16.65,6.94-17.7,10.84-12.05,19.09-10.88,28.9.78,6.53-1.11,8.84-3.54,10.42-6.52,4.23-11.22,10.45-6.07,18.45,4.36,6.78,16.52,8.26,24.56,3.78Z" transform="translate(-10.91 -15.86)"/><path class="cls-35" d="M163.78,253.4c-5.15-8-.45-14.22,6.07-18.45,2.43-1.58,4.32-3.89,3.54-10.42-1.17-9.81-6.82-18.06,10.88-28.9,6.41-3.93,9.93-3.57,16.65-6.94,2.66-1.33,7.8-5.69,11.33-7.09,13.23-5.22,12,5.75,6,14.43-2.88,4.18-6,8.08-7.3,9.64-15.58,18.12-5.6,24.62,5.87,21.18a18.14,18.14,0,0,0,8.43-5.24c12-12.88,20.24-38.33,6.74-48.43-5.42-4.06-13.71-3.3-22.07,7.16,3.37-18.36-24.47-3.77-29,13.67-.56-21.42-18.72-12.91-22.64,4.35-2.31,10.18-.47,20.06,3.12,28.45-6.58-.9-11.61,2-13.44,6.94-6.31,17.07,19.66,35.52,40.38,23.43-8,4.48-20.2,3-24.56-3.78Z" transform="translate(-10.91 -15.86)"/></g></g></svg>